<svg width="32" height="32" viewBox="0 0 32 32" fill="none" xmlns="http://www.w3.org/2000/svg">
<path d="M20 2.6665V5.33317M20 26.6665V29.3332M2.66663 19.9998H5.33329M2.66663 11.9998H5.33329M26.6666 19.9998H29.3333M26.6666 11.9998H29.3333M12 2.6665V5.33317M12 26.6665V29.3332M7.99996 5.33317H24C25.4727 5.33317 26.6666 6.52708 26.6666 7.99984V23.9998C26.6666 25.4726 25.4727 26.6665 24 26.6665H7.99996C6.5272 26.6665 5.33329 25.4726 5.33329 23.9998V7.99984C5.33329 6.52708 6.5272 5.33317 7.99996 5.33317ZM13.3333 11.9998H18.6666C19.403 11.9998 20 12.5968 20 13.3332V18.6665C20 19.4029 19.403 19.9998 18.6666 19.9998H13.3333C12.5969 19.9998 12 19.4029 12 18.6665V13.3332C12 12.5968 12.5969 11.9998 13.3333 11.9998Z" stroke="#0059FF" stroke-width="2" stroke-linecap="round" stroke-linejoin="round"/>
</svg>
