<svg width="461" height="98" viewBox="0 0 461 98" fill="none" xmlns="http://www.w3.org/2000/svg">
<path d="M1.98313 9.624C1.43913 9.624 0.975125 9.43733 0.591125 9.064C0.217792 8.68 0.0311251 8.216 0.0311251 7.672C0.0311251 7.11733 0.217792 6.65333 0.591125 6.28C0.975125 5.896 1.43913 5.704 1.98313 5.704C2.53779 5.704 3.00713 5.896 3.39113 6.28C3.77513 6.65333 3.96713 7.11733 3.96713 7.672C3.96713 8.216 3.77513 8.68 3.39113 9.064C3.00713 9.43733 2.53779 9.624 1.98313 9.624ZM14.688 7.416C14.688 6.328 14.9333 5.352 15.424 4.488C15.9147 3.61333 16.5813 2.93067 17.424 2.44C18.2773 1.94933 19.2213 1.704 20.256 1.704C21.472 1.704 22.5333 1.99733 23.44 2.584C24.3467 3.17067 25.008 4.00267 25.424 5.08H23.68C23.3707 4.408 22.9227 3.89067 22.336 3.528C21.76 3.16533 21.0667 2.984 20.256 2.984C19.4773 2.984 18.7787 3.16533 18.16 3.528C17.5413 3.89067 17.056 4.408 16.704 5.08C16.352 5.74133 16.176 6.52 16.176 7.416C16.176 8.30133 16.352 9.08 16.704 9.752C17.056 10.4133 17.5413 10.9253 18.16 11.288C18.7787 11.6507 19.4773 11.832 20.256 11.832C21.0667 11.832 21.76 11.656 22.336 11.304C22.9227 10.9413 23.3707 10.424 23.68 9.752H25.424C25.008 10.8187 24.3467 11.6453 23.44 12.232C22.5333 12.808 21.472 13.096 20.256 13.096C19.2213 13.096 18.2773 12.856 17.424 12.376C16.5813 11.8853 15.9147 11.208 15.424 10.344C14.9333 9.48 14.688 8.504 14.688 7.416ZM31.7354 13.144C30.914 13.144 30.1674 12.9573 29.4954 12.584C28.834 12.2107 28.3114 11.6827 27.9274 11C27.554 10.3067 27.3674 9.50667 27.3674 8.6C27.3674 7.704 27.5594 6.91467 27.9434 6.232C28.338 5.53867 28.8714 5.01067 29.5434 4.648C30.2154 4.27467 30.9674 4.088 31.7994 4.088C32.6314 4.088 33.3834 4.27467 34.0554 4.648C34.7274 5.01067 35.2554 5.53333 35.6394 6.216C36.034 6.89867 36.2314 7.69333 36.2314 8.6C36.2314 9.50667 36.0287 10.3067 35.6234 11C35.2287 11.6827 34.69 12.2107 34.0074 12.584C33.3247 12.9573 32.5674 13.144 31.7354 13.144ZM31.7354 11.864C32.258 11.864 32.7487 11.7413 33.2074 11.496C33.666 11.2507 34.034 10.8827 34.3114 10.392C34.5994 9.90133 34.7434 9.304 34.7434 8.6C34.7434 7.896 34.6047 7.29867 34.3274 6.808C34.05 6.31733 33.6874 5.95467 33.2394 5.72C32.7914 5.47467 32.306 5.352 31.7834 5.352C31.25 5.352 30.7594 5.47467 30.3114 5.72C29.874 5.95467 29.522 6.31733 29.2554 6.808C28.9887 7.29867 28.8554 7.896 28.8554 8.6C28.8554 9.31467 28.9834 9.91733 29.2394 10.408C29.506 10.8987 29.858 11.2667 30.2954 11.512C30.7327 11.7467 31.2127 11.864 31.7354 11.864ZM42.7377 4.072C43.8044 4.072 44.6684 4.39733 45.3298 5.048C45.9911 5.688 46.3217 6.616 46.3217 7.832V13H44.8817V8.04C44.8817 7.16533 44.6631 6.49867 44.2257 6.04C43.7884 5.57067 43.1911 5.336 42.4337 5.336C41.6657 5.336 41.0524 5.576 40.5937 6.056C40.1457 6.536 39.9217 7.23467 39.9217 8.152V13H38.4657V4.232H39.9217V5.48C40.2097 5.032 40.5991 4.68533 41.0897 4.44C41.5911 4.19467 42.1404 4.072 42.7377 4.072ZM50.7961 5.432V10.6C50.7961 11.0267 50.8868 11.3307 51.0681 11.512C51.2495 11.6827 51.5641 11.768 52.0121 11.768H53.0841V13H51.7721C50.9615 13 50.3535 12.8133 49.9481 12.44C49.5428 12.0667 49.3401 11.4533 49.3401 10.6V5.432H48.2041V4.232H49.3401V2.024H50.7961V4.232H53.0841V5.432H50.7961ZM54.6242 8.584C54.6242 7.688 54.8056 6.904 55.1682 6.232C55.5309 5.54933 56.0269 5.02133 56.6562 4.648C57.2962 4.27467 58.0056 4.088 58.7842 4.088C59.5522 4.088 60.2189 4.25333 60.7842 4.584C61.3496 4.91467 61.7709 5.33067 62.0482 5.832V4.232H63.5202V13H62.0482V11.368C61.7602 11.88 61.3282 12.3067 60.7522 12.648C60.1869 12.9787 59.5256 13.144 58.7682 13.144C57.9896 13.144 57.2856 12.952 56.6562 12.568C56.0269 12.184 55.5309 11.6453 55.1682 10.952C54.8056 10.2587 54.6242 9.46933 54.6242 8.584ZM62.0482 8.6C62.0482 7.93867 61.9149 7.36267 61.6482 6.872C61.3816 6.38133 61.0189 6.008 60.5602 5.752C60.1122 5.48533 59.6162 5.352 59.0722 5.352C58.5282 5.352 58.0322 5.48 57.5842 5.736C57.1362 5.992 56.7789 6.36533 56.5122 6.856C56.2456 7.34667 56.1122 7.92267 56.1122 8.584C56.1122 9.256 56.2456 9.84267 56.5122 10.344C56.7789 10.8347 57.1362 11.2133 57.5842 11.48C58.0322 11.736 58.5282 11.864 59.0722 11.864C59.6162 11.864 60.1122 11.736 60.5602 11.48C61.0189 11.2133 61.3816 10.8347 61.6482 10.344C61.9149 9.84267 62.0482 9.26133 62.0482 8.6ZM65.7567 8.6C65.7567 7.69333 65.9381 6.904 66.3007 6.232C66.6634 5.54933 67.1647 5.02133 67.8047 4.648C68.4554 4.27467 69.1967 4.088 70.0287 4.088C71.1061 4.088 71.9914 4.34933 72.6847 4.872C73.3887 5.39467 73.8527 6.12 74.0767 7.048H72.5087C72.3594 6.51467 72.0661 6.09333 71.6287 5.784C71.2021 5.47467 70.6687 5.32 70.0287 5.32C69.1967 5.32 68.5247 5.608 68.0127 6.184C67.5007 6.74933 67.2447 7.55467 67.2447 8.6C67.2447 9.656 67.5007 10.472 68.0127 11.048C68.5247 11.624 69.1967 11.912 70.0287 11.912C70.6687 11.912 71.2021 11.7627 71.6287 11.464C72.0554 11.1653 72.3487 10.7387 72.5087 10.184H74.0767C73.8421 11.08 73.3727 11.8 72.6687 12.344C71.9647 12.8773 71.0847 13.144 70.0287 13.144C69.1967 13.144 68.4554 12.9573 67.8047 12.584C67.1647 12.2107 66.6634 11.6827 66.3007 11C65.9381 10.3173 65.7567 9.51733 65.7567 8.6ZM78.1155 5.432V10.6C78.1155 11.0267 78.2062 11.3307 78.3875 11.512C78.5688 11.6827 78.8835 11.768 79.3315 11.768H80.4035V13H79.0915C78.2808 13 77.6728 12.8133 77.2675 12.44C76.8622 12.0667 76.6595 11.4533 76.6595 10.6V5.432H75.5235V4.232H76.6595V2.024H78.1155V4.232H80.4035V5.432H78.1155ZM90.8972 13.144C90.0759 13.144 89.3292 12.9573 88.6572 12.584C87.9959 12.2107 87.4732 11.6827 87.0892 11C86.7159 10.3067 86.5292 9.50667 86.5292 8.6C86.5292 7.704 86.7212 6.91467 87.1052 6.232C87.4999 5.53867 88.0332 5.01067 88.7052 4.648C89.3772 4.27467 90.1292 4.088 90.9612 4.088C91.7932 4.088 92.5452 4.27467 93.2172 4.648C93.8892 5.01067 94.4172 5.53333 94.8012 6.216C95.1959 6.89867 95.3932 7.69333 95.3932 8.6C95.3932 9.50667 95.1906 10.3067 94.7852 11C94.3906 11.6827 93.8519 12.2107 93.1692 12.584C92.4866 12.9573 91.7292 13.144 90.8972 13.144ZM90.8972 11.864C91.4199 11.864 91.9106 11.7413 92.3692 11.496C92.8279 11.2507 93.1959 10.8827 93.4732 10.392C93.7612 9.90133 93.9052 9.304 93.9052 8.6C93.9052 7.896 93.7666 7.29867 93.4892 6.808C93.2119 6.31733 92.8492 5.95467 92.4012 5.72C91.9532 5.47467 91.4679 5.352 90.9452 5.352C90.4119 5.352 89.9212 5.47467 89.4732 5.72C89.0359 5.95467 88.6839 6.31733 88.4172 6.808C88.1506 7.29867 88.0172 7.896 88.0172 8.6C88.0172 9.31467 88.1452 9.91733 88.4012 10.408C88.6679 10.8987 89.0199 11.2667 89.4572 11.512C89.8946 11.7467 90.3746 11.864 90.8972 11.864ZM105.404 4.232V13H103.948V11.704C103.67 12.152 103.281 12.504 102.78 12.76C102.289 13.0053 101.745 13.128 101.148 13.128C100.465 13.128 99.8516 12.9893 99.3076 12.712C98.7636 12.424 98.3316 11.9973 98.0116 11.432C97.7023 10.8667 97.5476 10.1787 97.5476 9.368V4.232H98.9876V9.176C98.9876 10.04 99.2063 10.7067 99.6436 11.176C100.081 11.6347 100.678 11.864 101.436 11.864C102.214 11.864 102.828 11.624 103.276 11.144C103.724 10.664 103.948 9.96533 103.948 9.048V4.232H105.404ZM109.638 5.656C109.894 5.15467 110.257 4.76533 110.726 4.488C111.206 4.21067 111.787 4.072 112.47 4.072V5.576H112.086C110.454 5.576 109.638 6.46133 109.638 8.232V13H108.182V4.232H109.638V5.656ZM122.16 13.144C121.488 13.144 120.886 13.032 120.352 12.808C119.819 12.5733 119.398 12.2533 119.088 11.848C118.779 11.432 118.608 10.9573 118.576 10.424H120.08C120.123 10.8613 120.326 11.2187 120.688 11.496C121.062 11.7733 121.547 11.912 122.144 11.912C122.699 11.912 123.136 11.7893 123.456 11.544C123.776 11.2987 123.936 10.9893 123.936 10.616C123.936 10.232 123.766 9.94933 123.424 9.768C123.083 9.576 122.555 9.38933 121.84 9.208C121.19 9.03733 120.656 8.86667 120.24 8.696C119.835 8.51467 119.483 8.25333 119.184 7.912C118.896 7.56 118.752 7.10133 118.752 6.536C118.752 6.088 118.886 5.67733 119.152 5.304C119.419 4.93067 119.798 4.63733 120.288 4.424C120.779 4.2 121.339 4.088 121.968 4.088C122.939 4.088 123.723 4.33333 124.32 4.824C124.918 5.31467 125.238 5.98667 125.28 6.84H123.824C123.792 6.38133 123.606 6.01333 123.264 5.736C122.934 5.45867 122.486 5.32 121.92 5.32C121.398 5.32 120.982 5.432 120.672 5.656C120.363 5.88 120.208 6.17333 120.208 6.536C120.208 6.824 120.299 7.064 120.48 7.256C120.672 7.43733 120.907 7.58667 121.184 7.704C121.472 7.81067 121.867 7.93333 122.368 8.072C122.998 8.24267 123.51 8.41333 123.904 8.584C124.299 8.744 124.635 8.98933 124.912 9.32C125.2 9.65067 125.35 10.0827 125.36 10.616C125.36 11.096 125.227 11.528 124.96 11.912C124.694 12.296 124.315 12.6 123.824 12.824C123.344 13.0373 122.79 13.144 122.16 13.144ZM135.512 4.232V13H134.056V11.704C133.778 12.152 133.389 12.504 132.888 12.76C132.397 13.0053 131.853 13.128 131.256 13.128C130.573 13.128 129.96 12.9893 129.416 12.712C128.872 12.424 128.44 11.9973 128.12 11.432C127.81 10.8667 127.656 10.1787 127.656 9.368V4.232H129.096V9.176C129.096 10.04 129.314 10.7067 129.752 11.176C130.189 11.6347 130.786 11.864 131.544 11.864C132.322 11.864 132.936 11.624 133.384 11.144C133.832 10.664 134.056 9.96533 134.056 9.048V4.232H135.512ZM139.746 5.848C140.034 5.34667 140.461 4.93067 141.026 4.6C141.602 4.25867 142.269 4.088 143.026 4.088C143.805 4.088 144.509 4.27467 145.138 4.648C145.778 5.02133 146.279 5.54933 146.642 6.232C147.005 6.904 147.186 7.688 147.186 8.584C147.186 9.46933 147.005 10.2587 146.642 10.952C146.279 11.6453 145.778 12.184 145.138 12.568C144.509 12.952 143.805 13.144 143.026 13.144C142.279 13.144 141.618 12.9787 141.042 12.648C140.477 12.3067 140.045 11.8853 139.746 11.384V17.16H138.29V4.232H139.746V5.848ZM145.698 8.584C145.698 7.92267 145.565 7.34667 145.298 6.856C145.031 6.36533 144.669 5.992 144.21 5.736C143.762 5.48 143.266 5.352 142.722 5.352C142.189 5.352 141.693 5.48533 141.234 5.752C140.786 6.008 140.423 6.38667 140.146 6.888C139.879 7.37867 139.746 7.94933 139.746 8.6C139.746 9.26133 139.879 9.84267 140.146 10.344C140.423 10.8347 140.786 11.2133 141.234 11.48C141.693 11.736 142.189 11.864 142.722 11.864C143.266 11.864 143.762 11.736 144.21 11.48C144.669 11.2133 145.031 10.8347 145.298 10.344C145.565 9.84267 145.698 9.256 145.698 8.584ZM150.879 5.848C151.167 5.34667 151.593 4.93067 152.159 4.6C152.735 4.25867 153.401 4.088 154.159 4.088C154.937 4.088 155.641 4.27467 156.271 4.648C156.911 5.02133 157.412 5.54933 157.775 6.232C158.137 6.904 158.319 7.688 158.319 8.584C158.319 9.46933 158.137 10.2587 157.775 10.952C157.412 11.6453 156.911 12.184 156.271 12.568C155.641 12.952 154.937 13.144 154.159 13.144C153.412 13.144 152.751 12.9787 152.175 12.648C151.609 12.3067 151.177 11.8853 150.879 11.384V17.16H149.423V4.232H150.879V5.848ZM156.831 8.584C156.831 7.92267 156.697 7.34667 156.431 6.856C156.164 6.36533 155.801 5.992 155.343 5.736C154.895 5.48 154.399 5.352 153.855 5.352C153.321 5.352 152.825 5.48533 152.367 5.752C151.919 6.008 151.556 6.38667 151.279 6.888C151.012 7.37867 150.879 7.94933 150.879 8.6C150.879 9.26133 151.012 9.84267 151.279 10.344C151.556 10.8347 151.919 11.2133 152.367 11.48C152.825 11.736 153.321 11.864 153.855 11.864C154.399 11.864 154.895 11.736 155.343 11.48C155.801 11.2133 156.164 10.8347 156.431 10.344C156.697 9.84267 156.831 9.256 156.831 8.584ZM164.379 13.144C163.558 13.144 162.811 12.9573 162.139 12.584C161.478 12.2107 160.955 11.6827 160.571 11C160.198 10.3067 160.011 9.50667 160.011 8.6C160.011 7.704 160.203 6.91467 160.587 6.232C160.982 5.53867 161.515 5.01067 162.187 4.648C162.859 4.27467 163.611 4.088 164.443 4.088C165.275 4.088 166.027 4.27467 166.699 4.648C167.371 5.01067 167.899 5.53333 168.283 6.216C168.678 6.89867 168.875 7.69333 168.875 8.6C168.875 9.50667 168.672 10.3067 168.267 11C167.872 11.6827 167.334 12.2107 166.651 12.584C165.968 12.9573 165.211 13.144 164.379 13.144ZM164.379 11.864C164.902 11.864 165.392 11.7413 165.851 11.496C166.31 11.2507 166.678 10.8827 166.955 10.392C167.243 9.90133 167.387 9.304 167.387 8.6C167.387 7.896 167.248 7.29867 166.971 6.808C166.694 6.31733 166.331 5.95467 165.883 5.72C165.435 5.47467 164.95 5.352 164.427 5.352C163.894 5.352 163.403 5.47467 162.955 5.72C162.518 5.95467 162.166 6.31733 161.899 6.808C161.632 7.29867 161.499 7.896 161.499 8.6C161.499 9.31467 161.627 9.91733 161.883 10.408C162.15 10.8987 162.502 11.2667 162.939 11.512C163.376 11.7467 163.856 11.864 164.379 11.864ZM172.566 5.656C172.822 5.15467 173.184 4.76533 173.654 4.488C174.134 4.21067 174.715 4.072 175.398 4.072V5.576H175.014C173.382 5.576 172.566 6.46133 172.566 8.232V13H171.11V4.232H172.566V5.656ZM179.174 5.432V10.6C179.174 11.0267 179.265 11.3307 179.446 11.512C179.628 11.6827 179.942 11.768 180.39 11.768H181.462V13H180.15C179.34 13 178.732 12.8133 178.326 12.44C177.921 12.0667 177.718 11.4533 177.718 10.6V5.432H176.582V4.232H177.718V2.024H179.174V4.232H181.462V5.432H179.174ZM189.908 5.432V10.6C189.908 11.0267 189.999 11.3307 190.18 11.512C190.361 11.6827 190.676 11.768 191.124 11.768H192.196V13H190.884C190.073 13 189.465 12.8133 189.06 12.44C188.655 12.0667 188.452 11.4533 188.452 10.6V5.432H187.316V4.232H188.452V2.024H189.908V4.232H192.196V5.432H189.908ZM202.28 8.28C202.28 8.55733 202.264 8.85067 202.232 9.16H195.224C195.277 10.024 195.571 10.7013 196.104 11.192C196.648 11.672 197.304 11.912 198.072 11.912C198.701 11.912 199.224 11.768 199.64 11.48C200.067 11.1813 200.365 10.7867 200.536 10.296H202.104C201.869 11.1387 201.4 11.8267 200.696 12.36C199.992 12.8827 199.117 13.144 198.072 13.144C197.24 13.144 196.493 12.9573 195.832 12.584C195.181 12.2107 194.669 11.6827 194.296 11C193.923 10.3067 193.736 9.50667 193.736 8.6C193.736 7.69333 193.917 6.89867 194.28 6.216C194.643 5.53333 195.149 5.01067 195.8 4.648C196.461 4.27467 197.219 4.088 198.072 4.088C198.904 4.088 199.64 4.26933 200.28 4.632C200.92 4.99467 201.411 5.496 201.752 6.136C202.104 6.76533 202.28 7.48 202.28 8.28ZM200.776 7.976C200.776 7.42133 200.653 6.94667 200.408 6.552C200.163 6.14667 199.827 5.84267 199.4 5.64C198.984 5.42667 198.52 5.32 198.008 5.32C197.272 5.32 196.643 5.55467 196.12 6.024C195.608 6.49333 195.315 7.144 195.24 7.976H200.776ZM203.978 8.584C203.978 7.688 204.159 6.904 204.522 6.232C204.885 5.54933 205.381 5.02133 206.01 4.648C206.65 4.27467 207.359 4.088 208.138 4.088C208.906 4.088 209.573 4.25333 210.138 4.584C210.703 4.91467 211.125 5.33067 211.402 5.832V4.232H212.874V13H211.402V11.368C211.114 11.88 210.682 12.3067 210.106 12.648C209.541 12.9787 208.879 13.144 208.122 13.144C207.343 13.144 206.639 12.952 206.01 12.568C205.381 12.184 204.885 11.6453 204.522 10.952C204.159 10.2587 203.978 9.46933 203.978 8.584ZM211.402 8.6C211.402 7.93867 211.269 7.36267 211.002 6.872C210.735 6.38133 210.373 6.008 209.914 5.752C209.466 5.48533 208.97 5.352 208.426 5.352C207.882 5.352 207.386 5.48 206.938 5.736C206.49 5.992 206.133 6.36533 205.866 6.856C205.599 7.34667 205.466 7.92267 205.466 8.584C205.466 9.256 205.599 9.84267 205.866 10.344C206.133 10.8347 206.49 11.2133 206.938 11.48C207.386 11.736 207.882 11.864 208.426 11.864C208.97 11.864 209.466 11.736 209.914 11.48C210.373 11.2133 210.735 10.8347 211.002 10.344C211.269 9.84267 211.402 9.26133 211.402 8.6ZM226.199 4.072C226.881 4.072 227.489 4.216 228.023 4.504C228.556 4.78133 228.977 5.20267 229.287 5.768C229.596 6.33333 229.751 7.02133 229.751 7.832V13H228.311V8.04C228.311 7.16533 228.092 6.49867 227.655 6.04C227.228 5.57067 226.647 5.336 225.911 5.336C225.153 5.336 224.551 5.58133 224.103 6.072C223.655 6.552 223.431 7.25067 223.431 8.168V13H221.991V8.04C221.991 7.16533 221.772 6.49867 221.335 6.04C220.908 5.57067 220.327 5.336 219.591 5.336C218.833 5.336 218.231 5.58133 217.783 6.072C217.335 6.552 217.111 7.25067 217.111 8.168V13H215.655V4.232H217.111V5.496C217.399 5.03733 217.783 4.68533 218.263 4.44C218.753 4.19467 219.292 4.072 219.879 4.072C220.615 4.072 221.265 4.23733 221.831 4.568C222.396 4.89867 222.817 5.384 223.095 6.024C223.34 5.40533 223.745 4.92533 224.311 4.584C224.876 4.24267 225.505 4.072 226.199 4.072ZM236.501 8.584C236.501 7.688 236.682 6.904 237.045 6.232C237.407 5.54933 237.903 5.02133 238.533 4.648C239.173 4.27467 239.882 4.088 240.661 4.088C241.429 4.088 242.095 4.25333 242.661 4.584C243.226 4.91467 243.647 5.33067 243.925 5.832V4.232H245.397V13H243.925V11.368C243.637 11.88 243.205 12.3067 242.629 12.648C242.063 12.9787 241.402 13.144 240.645 13.144C239.866 13.144 239.162 12.952 238.533 12.568C237.903 12.184 237.407 11.6453 237.045 10.952C236.682 10.2587 236.501 9.46933 236.501 8.584ZM243.925 8.6C243.925 7.93867 243.791 7.36267 243.525 6.872C243.258 6.38133 242.895 6.008 242.437 5.752C241.989 5.48533 241.493 5.352 240.949 5.352C240.405 5.352 239.909 5.48 239.461 5.736C239.013 5.992 238.655 6.36533 238.389 6.856C238.122 7.34667 237.989 7.92267 237.989 8.584C237.989 9.256 238.122 9.84267 238.389 10.344C238.655 10.8347 239.013 11.2133 239.461 11.48C239.909 11.736 240.405 11.864 240.949 11.864C241.493 11.864 241.989 11.736 242.437 11.48C242.895 11.2133 243.258 10.8347 243.525 10.344C243.791 9.84267 243.925 9.26133 243.925 8.6ZM249.953 5.432V10.6C249.953 11.0267 250.044 11.3307 250.225 11.512C250.406 11.6827 250.721 11.768 251.169 11.768H252.241V13H250.929C250.118 13 249.51 12.8133 249.105 12.44C248.7 12.0667 248.497 11.4533 248.497 10.6V5.432H247.361V4.232H248.497V2.024H249.953V4.232H252.241V5.432H249.953ZM262.015 13.144C261.343 13.144 260.74 13.032 260.207 12.808C259.673 12.5733 259.252 12.2533 258.943 11.848C258.633 11.432 258.463 10.9573 258.431 10.424H259.935C259.977 10.8613 260.18 11.2187 260.543 11.496C260.916 11.7733 261.401 11.912 261.999 11.912C262.553 11.912 262.991 11.7893 263.311 11.544C263.631 11.2987 263.791 10.9893 263.791 10.616C263.791 10.232 263.62 9.94933 263.279 9.768C262.937 9.576 262.409 9.38933 261.695 9.208C261.044 9.03733 260.511 8.86667 260.095 8.696C259.689 8.51467 259.337 8.25333 259.039 7.912C258.751 7.56 258.607 7.10133 258.607 6.536C258.607 6.088 258.74 5.67733 259.007 5.304C259.273 4.93067 259.652 4.63733 260.143 4.424C260.633 4.2 261.193 4.088 261.823 4.088C262.793 4.088 263.577 4.33333 264.175 4.824C264.772 5.31467 265.092 5.98667 265.135 6.84H263.679C263.647 6.38133 263.46 6.01333 263.119 5.736C262.788 5.45867 262.34 5.32 261.775 5.32C261.252 5.32 260.836 5.432 260.527 5.656C260.217 5.88 260.063 6.17333 260.063 6.536C260.063 6.824 260.153 7.064 260.335 7.256C260.527 7.43733 260.761 7.58667 261.039 7.704C261.327 7.81067 261.721 7.93333 262.223 8.072C262.852 8.24267 263.364 8.41333 263.759 8.584C264.153 8.744 264.489 8.98933 264.767 9.32C265.055 9.65067 265.204 10.0827 265.215 10.616C265.215 11.096 265.081 11.528 264.815 11.912C264.548 12.296 264.169 12.6 263.679 12.824C263.199 13.0373 262.644 13.144 262.015 13.144ZM275.366 4.232V13H273.91V11.704C273.633 12.152 273.243 12.504 272.742 12.76C272.251 13.0053 271.707 13.128 271.11 13.128C270.427 13.128 269.814 12.9893 269.27 12.712C268.726 12.424 268.294 11.9973 267.974 11.432C267.665 10.8667 267.51 10.1787 267.51 9.368V4.232H268.95V9.176C268.95 10.04 269.169 10.7067 269.606 11.176C270.043 11.6347 270.641 11.864 271.398 11.864C272.177 11.864 272.79 11.624 273.238 11.144C273.686 10.664 273.91 9.96533 273.91 9.048V4.232H275.366ZM279.601 5.848C279.889 5.34667 280.315 4.93067 280.881 4.6C281.457 4.25867 282.123 4.088 282.881 4.088C283.659 4.088 284.363 4.27467 284.993 4.648C285.633 5.02133 286.134 5.54933 286.497 6.232C286.859 6.904 287.041 7.688 287.041 8.584C287.041 9.46933 286.859 10.2587 286.497 10.952C286.134 11.6453 285.633 12.184 284.993 12.568C284.363 12.952 283.659 13.144 282.881 13.144C282.134 13.144 281.473 12.9787 280.897 12.648C280.331 12.3067 279.899 11.8853 279.601 11.384V17.16H278.145V4.232H279.601V5.848ZM285.553 8.584C285.553 7.92267 285.419 7.34667 285.153 6.856C284.886 6.36533 284.523 5.992 284.065 5.736C283.617 5.48 283.121 5.352 282.577 5.352C282.043 5.352 281.547 5.48533 281.089 5.752C280.641 6.008 280.278 6.38667 280.001 6.888C279.734 7.37867 279.601 7.94933 279.601 8.6C279.601 9.26133 279.734 9.84267 280.001 10.344C280.278 10.8347 280.641 11.2133 281.089 11.48C281.547 11.736 282.043 11.864 282.577 11.864C283.121 11.864 283.617 11.736 284.065 11.48C284.523 11.2133 284.886 10.8347 285.153 10.344C285.419 9.84267 285.553 9.256 285.553 8.584ZM290.733 5.848C291.021 5.34667 291.448 4.93067 292.013 4.6C292.589 4.25867 293.256 4.088 294.013 4.088C294.792 4.088 295.496 4.27467 296.125 4.648C296.765 5.02133 297.266 5.54933 297.629 6.232C297.992 6.904 298.173 7.688 298.173 8.584C298.173 9.46933 297.992 10.2587 297.629 10.952C297.266 11.6453 296.765 12.184 296.125 12.568C295.496 12.952 294.792 13.144 294.013 13.144C293.266 13.144 292.605 12.9787 292.029 12.648C291.464 12.3067 291.032 11.8853 290.733 11.384V17.16H289.277V4.232H290.733V5.848ZM296.685 8.584C296.685 7.92267 296.552 7.34667 296.285 6.856C296.018 6.36533 295.656 5.992 295.197 5.736C294.749 5.48 294.253 5.352 293.709 5.352C293.176 5.352 292.68 5.48533 292.221 5.752C291.773 6.008 291.41 6.38667 291.133 6.888C290.866 7.37867 290.733 7.94933 290.733 8.6C290.733 9.26133 290.866 9.84267 291.133 10.344C291.41 10.8347 291.773 11.2133 292.221 11.48C292.68 11.736 293.176 11.864 293.709 11.864C294.253 11.864 294.749 11.736 295.197 11.48C295.656 11.2133 296.018 10.8347 296.285 10.344C296.552 9.84267 296.685 9.256 296.685 8.584ZM304.233 13.144C303.412 13.144 302.665 12.9573 301.993 12.584C301.332 12.2107 300.809 11.6827 300.425 11C300.052 10.3067 299.865 9.50667 299.865 8.6C299.865 7.704 300.057 6.91467 300.441 6.232C300.836 5.53867 301.369 5.01067 302.041 4.648C302.713 4.27467 303.465 4.088 304.297 4.088C305.129 4.088 305.881 4.27467 306.553 4.648C307.225 5.01067 307.753 5.53333 308.137 6.216C308.532 6.89867 308.729 7.69333 308.729 8.6C308.729 9.50667 308.527 10.3067 308.121 11C307.727 11.6827 307.188 12.2107 306.505 12.584C305.823 12.9573 305.065 13.144 304.233 13.144ZM304.233 11.864C304.756 11.864 305.247 11.7413 305.705 11.496C306.164 11.2507 306.532 10.8827 306.809 10.392C307.097 9.90133 307.241 9.304 307.241 8.6C307.241 7.896 307.103 7.29867 306.825 6.808C306.548 6.31733 306.185 5.95467 305.737 5.72C305.289 5.47467 304.804 5.352 304.281 5.352C303.748 5.352 303.257 5.47467 302.809 5.72C302.372 5.95467 302.02 6.31733 301.753 6.808C301.487 7.29867 301.353 7.896 301.353 8.6C301.353 9.31467 301.481 9.91733 301.737 10.408C302.004 10.8987 302.356 11.2667 302.793 11.512C303.231 11.7467 303.711 11.864 304.233 11.864ZM312.42 5.656C312.676 5.15467 313.039 4.76533 313.508 4.488C313.988 4.21067 314.569 4.072 315.252 4.072V5.576H314.868C313.236 5.576 312.42 6.46133 312.42 8.232V13H310.964V4.232H312.42V5.656ZM319.029 5.432V10.6C319.029 11.0267 319.119 11.3307 319.301 11.512C319.482 11.6827 319.797 11.768 320.245 11.768H321.317V13H320.005C319.194 13 318.586 12.8133 318.181 12.44C317.775 12.0667 317.573 11.4533 317.573 10.6V5.432H316.437V4.232H317.573V2.024H319.029V4.232H321.317V5.432H319.029ZM331.401 2.744C332.585 2.744 333.614 2.968 334.489 3.416C335.363 3.864 336.035 4.49333 336.505 5.304C336.974 6.104 337.209 7.032 337.209 8.088C337.209 8.93067 337.07 9.74133 336.793 10.52C336.515 11.288 336.11 11.912 335.577 12.392C335.054 12.872 334.441 13.112 333.737 13.112C333.203 13.112 332.793 12.9787 332.505 12.712C332.217 12.4453 332.051 12.0827 332.009 11.624C331.678 12.0827 331.257 12.4453 330.745 12.712C330.243 12.9787 329.71 13.112 329.145 13.112C328.334 13.112 327.694 12.8667 327.225 12.376C326.766 11.8747 326.537 11.2027 326.537 10.36C326.537 9.56 326.702 8.81333 327.033 8.12C327.374 7.42667 327.843 6.872 328.441 6.456C329.038 6.02933 329.715 5.816 330.473 5.816C331.486 5.816 332.169 6.2 332.521 6.968L332.697 5.976H333.961L333.161 10.6C333.129 10.8027 333.113 10.9893 333.113 11.16C333.113 11.8 333.395 12.12 333.961 12.12C334.387 12.12 334.755 11.9173 335.065 11.512C335.385 11.1067 335.625 10.6 335.785 9.992C335.945 9.37333 336.025 8.76533 336.025 8.168C336.025 6.77067 335.603 5.688 334.761 4.92C333.929 4.152 332.75 3.768 331.225 3.768C329.955 3.768 328.809 4.07733 327.785 4.696C326.771 5.304 325.977 6.14133 325.401 7.208C324.825 8.27467 324.537 9.45333 324.537 10.744C324.526 12.152 324.947 13.2347 325.801 13.992C326.654 14.76 327.838 15.144 329.353 15.144C330.355 15.144 331.241 14.9627 332.009 14.6L332.201 15.592C331.251 15.9867 330.206 16.184 329.065 16.184C327.923 16.184 326.915 15.9653 326.041 15.528C325.177 15.1013 324.505 14.4827 324.025 13.672C323.555 12.872 323.321 11.9387 323.321 10.872C323.321 9.368 323.667 7.99733 324.361 6.76C325.054 5.512 326.014 4.53067 327.241 3.816C328.478 3.10133 329.865 2.744 331.401 2.744ZM329.577 11.976C330.057 11.976 330.499 11.8373 330.905 11.56C331.31 11.272 331.63 10.888 331.865 10.408C332.099 9.91733 332.217 9.384 332.217 8.808C332.217 8.25333 332.062 7.80533 331.753 7.464C331.454 7.112 331.027 6.936 330.473 6.936C329.961 6.936 329.507 7.09067 329.113 7.4C328.729 7.69867 328.43 8.09867 328.217 8.6C328.003 9.09067 327.897 9.60267 327.897 10.136C327.897 10.7013 328.041 11.1493 328.329 11.48C328.617 11.8107 329.033 11.976 329.577 11.976ZM339.38 8.584C339.38 7.688 339.561 6.904 339.924 6.232C340.287 5.54933 340.783 5.02133 341.412 4.648C342.052 4.27467 342.761 4.088 343.54 4.088C344.308 4.088 344.975 4.25333 345.54 4.584C346.105 4.91467 346.527 5.33067 346.804 5.832V4.232H348.276V13H346.804V11.368C346.516 11.88 346.084 12.3067 345.508 12.648C344.943 12.9787 344.281 13.144 343.524 13.144C342.745 13.144 342.041 12.952 341.412 12.568C340.783 12.184 340.287 11.6453 339.924 10.952C339.561 10.2587 339.38 9.46933 339.38 8.584ZM346.804 8.6C346.804 7.93867 346.671 7.36267 346.404 6.872C346.137 6.38133 345.775 6.008 345.316 5.752C344.868 5.48533 344.372 5.352 343.828 5.352C343.284 5.352 342.788 5.48 342.34 5.736C341.892 5.992 341.535 6.36533 341.268 6.856C341.001 7.34667 340.868 7.92267 340.868 8.584C340.868 9.256 341.001 9.84267 341.268 10.344C341.535 10.8347 341.892 11.2133 342.34 11.48C342.788 11.736 343.284 11.864 343.828 11.864C344.372 11.864 344.868 11.736 345.316 11.48C345.775 11.2133 346.137 10.8347 346.404 10.344C346.671 9.84267 346.804 9.26133 346.804 8.6ZM350.512 8.584C350.512 7.688 350.694 6.904 351.056 6.232C351.419 5.54933 351.915 5.02133 352.544 4.648C353.184 4.27467 353.899 4.088 354.688 4.088C355.371 4.088 356.006 4.248 356.592 4.568C357.179 4.87733 357.627 5.288 357.936 5.8V1.16H359.408V13H357.936V11.352C357.648 11.8747 357.222 12.3067 356.656 12.648C356.091 12.9787 355.43 13.144 354.672 13.144C353.894 13.144 353.184 12.952 352.544 12.568C351.915 12.184 351.419 11.6453 351.056 10.952C350.694 10.2587 350.512 9.46933 350.512 8.584ZM357.936 8.6C357.936 7.93867 357.803 7.36267 357.536 6.872C357.27 6.38133 356.907 6.008 356.448 5.752C356 5.48533 355.504 5.352 354.96 5.352C354.416 5.352 353.92 5.48 353.472 5.736C353.024 5.992 352.667 6.36533 352.4 6.856C352.134 7.34667 352 7.92267 352 8.584C352 9.256 352.134 9.84267 352.4 10.344C352.667 10.8347 353.024 11.2133 353.472 11.48C353.92 11.736 354.416 11.864 354.96 11.864C355.504 11.864 356 11.736 356.448 11.48C356.907 11.2133 357.27 10.8347 357.536 10.344C357.803 9.84267 357.936 9.26133 357.936 8.6ZM372.733 4.072C373.416 4.072 374.024 4.216 374.557 4.504C375.09 4.78133 375.512 5.20267 375.821 5.768C376.13 6.33333 376.285 7.02133 376.285 7.832V13H374.845V8.04C374.845 7.16533 374.626 6.49867 374.189 6.04C373.762 5.57067 373.181 5.336 372.445 5.336C371.688 5.336 371.085 5.58133 370.637 6.072C370.189 6.552 369.965 7.25067 369.965 8.168V13H368.525V8.04C368.525 7.16533 368.306 6.49867 367.869 6.04C367.442 5.57067 366.861 5.336 366.125 5.336C365.368 5.336 364.765 5.58133 364.317 6.072C363.869 6.552 363.645 7.25067 363.645 8.168V13H362.189V4.232H363.645V5.496C363.933 5.03733 364.317 4.68533 364.797 4.44C365.288 4.19467 365.826 4.072 366.413 4.072C367.149 4.072 367.8 4.23733 368.365 4.568C368.93 4.89867 369.352 5.384 369.629 6.024C369.874 5.40533 370.28 4.92533 370.845 4.584C371.41 4.24267 372.04 4.072 372.733 4.072ZM386.769 4.232V13H385.313V11.704C385.036 12.152 384.647 12.504 384.145 12.76C383.655 13.0053 383.111 13.128 382.513 13.128C381.831 13.128 381.217 12.9893 380.673 12.712C380.129 12.424 379.697 11.9973 379.377 11.432C379.068 10.8667 378.913 10.1787 378.913 9.368V4.232H380.353V9.176C380.353 10.04 380.572 10.7067 381.009 11.176C381.447 11.6347 382.044 11.864 382.801 11.864C383.58 11.864 384.193 11.624 384.641 11.144C385.089 10.664 385.313 9.96533 385.313 9.048V4.232H386.769ZM391.004 1.16V13H389.548V1.16H391.004ZM395.581 5.432V10.6C395.581 11.0267 395.672 11.3307 395.853 11.512C396.034 11.6827 396.349 11.768 396.797 11.768H397.869V13H396.557C395.746 13 395.138 12.8133 394.733 12.44C394.328 12.0667 394.125 11.4533 394.125 10.6V5.432H392.989V4.232H394.125V2.024H395.581V4.232H397.869V5.432H395.581ZM400.705 2.808C400.428 2.808 400.193 2.712 400.001 2.52C399.809 2.328 399.713 2.09333 399.713 1.816C399.713 1.53867 399.809 1.304 400.001 1.112C400.193 0.919999 400.428 0.823999 400.705 0.823999C400.972 0.823999 401.196 0.919999 401.377 1.112C401.569 1.304 401.665 1.53867 401.665 1.816C401.665 2.09333 401.569 2.328 401.377 2.52C401.196 2.712 400.972 2.808 400.705 2.808ZM401.409 4.232V13H399.953V4.232H401.409ZM405.667 5.848C405.955 5.34667 406.381 4.93067 406.947 4.6C407.523 4.25867 408.189 4.088 408.947 4.088C409.725 4.088 410.429 4.27467 411.059 4.648C411.699 5.02133 412.2 5.54933 412.563 6.232C412.925 6.904 413.107 7.688 413.107 8.584C413.107 9.46933 412.925 10.2587 412.563 10.952C412.2 11.6453 411.699 12.184 411.059 12.568C410.429 12.952 409.725 13.144 408.947 13.144C408.2 13.144 407.539 12.9787 406.963 12.648C406.397 12.3067 405.965 11.8853 405.667 11.384V17.16H404.211V4.232H405.667V5.848ZM411.619 8.584C411.619 7.92267 411.485 7.34667 411.219 6.856C410.952 6.36533 410.589 5.992 410.131 5.736C409.683 5.48 409.187 5.352 408.643 5.352C408.109 5.352 407.613 5.48533 407.155 5.752C406.707 6.008 406.344 6.38667 406.067 6.888C405.8 7.37867 405.667 7.94933 405.667 8.6C405.667 9.26133 405.8 9.84267 406.067 10.344C406.344 10.8347 406.707 11.2133 407.155 11.48C407.613 11.736 408.109 11.864 408.643 11.864C409.187 11.864 409.683 11.736 410.131 11.48C410.589 11.2133 410.952 10.8347 411.219 10.344C411.485 9.84267 411.619 9.256 411.619 8.584ZM416.799 1.16V13H415.343V1.16H416.799ZM420.353 2.808C420.075 2.808 419.841 2.712 419.649 2.52C419.457 2.328 419.361 2.09333 419.361 1.816C419.361 1.53867 419.457 1.304 419.649 1.112C419.841 0.919999 420.075 0.823999 420.353 0.823999C420.619 0.823999 420.843 0.919999 421.025 1.112C421.217 1.304 421.313 1.53867 421.313 1.816C421.313 2.09333 421.217 2.328 421.025 2.52C420.843 2.712 420.619 2.808 420.353 2.808ZM421.057 4.232V13H419.601V4.232H421.057ZM431.858 8.28C431.858 8.55733 431.842 8.85067 431.81 9.16H424.802C424.856 10.024 425.149 10.7013 425.682 11.192C426.226 11.672 426.882 11.912 427.65 11.912C428.28 11.912 428.802 11.768 429.218 11.48C429.645 11.1813 429.944 10.7867 430.114 10.296H431.682C431.448 11.1387 430.978 11.8267 430.274 12.36C429.57 12.8827 428.696 13.144 427.65 13.144C426.818 13.144 426.072 12.9573 425.41 12.584C424.76 12.2107 424.248 11.6827 423.874 11C423.501 10.3067 423.314 9.50667 423.314 8.6C423.314 7.69333 423.496 6.89867 423.858 6.216C424.221 5.53333 424.728 5.01067 425.378 4.648C426.04 4.27467 426.797 4.088 427.65 4.088C428.482 4.088 429.218 4.26933 429.858 4.632C430.498 4.99467 430.989 5.496 431.33 6.136C431.682 6.76533 431.858 7.48 431.858 8.28ZM430.354 7.976C430.354 7.42133 430.232 6.94667 429.986 6.552C429.741 6.14667 429.405 5.84267 428.978 5.64C428.562 5.42667 428.098 5.32 427.586 5.32C426.85 5.32 426.221 5.55467 425.698 6.024C425.186 6.49333 424.893 7.144 424.818 7.976H430.354ZM435.556 5.656C435.812 5.15467 436.175 4.76533 436.644 4.488C437.124 4.21067 437.705 4.072 438.388 4.072V5.576H438.004C436.372 5.576 435.556 6.46133 435.556 8.232V13H434.1V4.232H435.556V5.656ZM440.853 13.096C440.576 13.096 440.341 13 440.149 12.808C439.957 12.616 439.861 12.3813 439.861 12.104C439.861 11.8267 439.957 11.592 440.149 11.4C440.341 11.208 440.576 11.112 440.853 11.112C441.12 11.112 441.344 11.208 441.525 11.4C441.717 11.592 441.813 11.8267 441.813 12.104C441.813 12.3813 441.717 12.616 441.525 12.808C441.344 13 441.12 13.096 440.853 13.096ZM444.82 2.808C444.543 2.808 444.308 2.712 444.116 2.52C443.924 2.328 443.828 2.09333 443.828 1.816C443.828 1.53867 443.924 1.304 444.116 1.112C444.308 0.919999 444.543 0.823999 444.82 0.823999C445.087 0.823999 445.311 0.919999 445.492 1.112C445.684 1.304 445.78 1.53867 445.78 1.816C445.78 2.09333 445.684 2.328 445.492 2.52C445.311 2.712 445.087 2.808 444.82 2.808ZM445.524 4.232V13H444.068V4.232H445.524ZM452.15 13.144C451.328 13.144 450.582 12.9573 449.91 12.584C449.248 12.2107 448.726 11.6827 448.342 11C447.968 10.3067 447.782 9.50667 447.782 8.6C447.782 7.704 447.974 6.91467 448.358 6.232C448.752 5.53867 449.286 5.01067 449.958 4.648C450.63 4.27467 451.382 4.088 452.214 4.088C453.046 4.088 453.798 4.27467 454.47 4.648C455.142 5.01067 455.67 5.53333 456.054 6.216C456.448 6.89867 456.646 7.69333 456.646 8.6C456.646 9.50667 456.443 10.3067 456.038 11C455.643 11.6827 455.104 12.2107 454.422 12.584C453.739 12.9573 452.982 13.144 452.15 13.144ZM452.15 11.864C452.672 11.864 453.163 11.7413 453.622 11.496C454.08 11.2507 454.448 10.8827 454.726 10.392C455.014 9.90133 455.158 9.304 455.158 8.6C455.158 7.896 455.019 7.29867 454.742 6.808C454.464 6.31733 454.102 5.95467 453.654 5.72C453.206 5.47467 452.72 5.352 452.198 5.352C451.664 5.352 451.174 5.47467 450.726 5.72C450.288 5.95467 449.936 6.31733 449.67 6.808C449.403 7.29867 449.27 7.896 449.27 8.6C449.27 9.31467 449.398 9.91733 449.654 10.408C449.92 10.8987 450.272 11.2667 450.71 11.512C451.147 11.7467 451.627 11.864 452.15 11.864ZM459.344 13.096C459.067 13.096 458.832 13 458.64 12.808C458.448 12.616 458.352 12.3813 458.352 12.104C458.352 11.8267 458.448 11.592 458.64 11.4C458.832 11.208 459.067 11.112 459.344 11.112C459.611 11.112 459.835 11.208 460.016 11.4C460.208 11.592 460.304 11.8267 460.304 12.104C460.304 12.3813 460.208 12.616 460.016 12.808C459.835 13 459.611 13.096 459.344 13.096ZM1.98313 29.624C1.43913 29.624 0.975125 29.4373 0.591125 29.064C0.217792 28.68 0.0311251 28.216 0.0311251 27.672C0.0311251 27.1173 0.217792 26.6533 0.591125 26.28C0.975125 25.896 1.43913 25.704 1.98313 25.704C2.53779 25.704 3.00713 25.896 3.39113 26.28C3.77513 26.6533 3.96713 27.1173 3.96713 27.672C3.96713 28.216 3.77513 28.68 3.39113 29.064C3.00713 29.4373 2.53779 29.624 1.98313 29.624ZM16.688 21.848V33H15.232V21.848H16.688ZM23.7615 24.072C24.8282 24.072 25.6922 24.3973 26.3535 25.048C27.0148 25.688 27.3455 26.616 27.3455 27.832V33H25.9055V28.04C25.9055 27.1653 25.6868 26.4987 25.2495 26.04C24.8122 25.5707 24.2148 25.336 23.4575 25.336C22.6895 25.336 22.0762 25.576 21.6175 26.056C21.1695 26.536 20.9455 27.2347 20.9455 28.152V33H19.4895V24.232H20.9455V25.48C21.2335 25.032 21.6228 24.6853 22.1135 24.44C22.6148 24.1947 23.1642 24.072 23.7615 24.072ZM29.4999 28.6C29.4999 27.6933 29.6812 26.904 30.0439 26.232C30.4065 25.5493 30.9079 25.0213 31.5479 24.648C32.1985 24.2747 32.9399 24.088 33.7719 24.088C34.8492 24.088 35.7345 24.3493 36.4279 24.872C37.1319 25.3947 37.5959 26.12 37.8199 27.048H36.2519C36.1025 26.5147 35.8092 26.0933 35.3719 25.784C34.9452 25.4747 34.4119 25.32 33.7719 25.32C32.9399 25.32 32.2679 25.608 31.7559 26.184C31.2439 26.7493 30.9879 27.5547 30.9879 28.6C30.9879 29.656 31.2439 30.472 31.7559 31.048C32.2679 31.624 32.9399 31.912 33.7719 31.912C34.4119 31.912 34.9452 31.7627 35.3719 31.464C35.7985 31.1653 36.0919 30.7387 36.2519 30.184H37.8199C37.5852 31.08 37.1159 31.8 36.4119 32.344C35.7079 32.8773 34.8279 33.144 33.7719 33.144C32.9399 33.144 32.1985 32.9573 31.5479 32.584C30.9079 32.2107 30.4065 31.6827 30.0439 31C29.6812 30.3173 29.4999 29.5173 29.4999 28.6ZM41.5386 21.16V33H40.0826V21.16H41.5386ZM52.1161 24.232V33H50.6601V31.704C50.3828 32.152 49.9935 32.504 49.4921 32.76C49.0015 33.0053 48.4575 33.128 47.8601 33.128C47.1775 33.128 46.5641 32.9893 46.0201 32.712C45.4761 32.424 45.0441 31.9973 44.7241 31.432C44.4148 30.8667 44.2601 30.1787 44.2601 29.368V24.232H45.7001V29.176C45.7001 30.04 45.9188 30.7067 46.3561 31.176C46.7935 31.6347 47.3908 31.864 48.1481 31.864C48.9268 31.864 49.5401 31.624 49.9881 31.144C50.4361 30.664 50.6601 29.9653 50.6601 29.048V24.232H52.1161ZM54.3505 28.584C54.3505 27.688 54.5318 26.904 54.8945 26.232C55.2572 25.5493 55.7532 25.0213 56.3825 24.648C57.0225 24.2747 57.7372 24.088 58.5265 24.088C59.2092 24.088 59.8438 24.248 60.4305 24.568C61.0172 24.8773 61.4652 25.288 61.7745 25.8V21.16H63.2465V33H61.7745V31.352C61.4865 31.8747 61.0598 32.3067 60.4945 32.648C59.9292 32.9787 59.2678 33.144 58.5105 33.144C57.7318 33.144 57.0225 32.952 56.3825 32.568C55.7532 32.184 55.2572 31.6453 54.8945 30.952C54.5318 30.2587 54.3505 29.4693 54.3505 28.584ZM61.7745 28.6C61.7745 27.9387 61.6412 27.3627 61.3745 26.872C61.1078 26.3813 60.7452 26.008 60.2865 25.752C59.8385 25.4853 59.3425 25.352 58.7985 25.352C58.2545 25.352 57.7585 25.48 57.3105 25.736C56.8625 25.992 56.5052 26.3653 56.2385 26.856C55.9718 27.3467 55.8385 27.9227 55.8385 28.584C55.8385 29.256 55.9718 29.8427 56.2385 30.344C56.5052 30.8347 56.8625 31.2133 57.3105 31.48C57.7585 31.736 58.2545 31.864 58.7985 31.864C59.3425 31.864 59.8385 31.736 60.2865 31.48C60.7452 31.2133 61.1078 30.8347 61.3745 30.344C61.6412 29.8427 61.7745 29.2613 61.7745 28.6ZM74.027 28.28C74.027 28.5573 74.011 28.8507 73.979 29.16H66.971C67.0243 30.024 67.3177 30.7013 67.851 31.192C68.395 31.672 69.051 31.912 69.819 31.912C70.4483 31.912 70.971 31.768 71.387 31.48C71.8137 31.1813 72.1123 30.7867 72.283 30.296H73.851C73.6163 31.1387 73.147 31.8267 72.443 32.36C71.739 32.8827 70.8643 33.144 69.819 33.144C68.987 33.144 68.2403 32.9573 67.579 32.584C66.9283 32.2107 66.4163 31.6827 66.043 31C65.6697 30.3067 65.483 29.5067 65.483 28.6C65.483 27.6933 65.6643 26.8987 66.027 26.216C66.3897 25.5333 66.8963 25.0107 67.547 24.648C68.2083 24.2747 68.9657 24.088 69.819 24.088C70.651 24.088 71.387 24.2693 72.027 24.632C72.667 24.9947 73.1577 25.496 73.499 26.136C73.851 26.7653 74.027 27.48 74.027 28.28ZM72.523 27.976C72.523 27.4213 72.4003 26.9467 72.155 26.552C71.9097 26.1467 71.5737 25.8427 71.147 25.64C70.731 25.4267 70.267 25.32 69.755 25.32C69.019 25.32 68.3897 25.5547 67.867 26.024C67.355 26.4933 67.0617 27.144 66.987 27.976H72.523ZM76.7329 33.096C76.4555 33.096 76.2209 33 76.0289 32.808C75.8369 32.616 75.7409 32.3813 75.7409 32.104C75.7409 31.8267 75.8369 31.592 76.0289 31.4C76.2209 31.208 76.4555 31.112 76.7329 31.112C76.9995 31.112 77.2235 31.208 77.4049 31.4C77.5969 31.592 77.6929 31.8267 77.6929 32.104C77.6929 32.3813 77.5969 32.616 77.4049 32.808C77.2235 33 76.9995 33.096 76.7329 33.096ZM76.7329 26.248C76.4555 26.248 76.2209 26.152 76.0289 25.96C75.8369 25.768 75.7409 25.5333 75.7409 25.256C75.7409 24.9787 75.8369 24.744 76.0289 24.552C76.2209 24.36 76.4555 24.264 76.7329 24.264C76.9995 24.264 77.2235 24.36 77.4049 24.552C77.5969 24.744 77.6929 24.9787 77.6929 25.256C77.6929 25.5333 77.5969 25.768 77.4049 25.96C77.2235 26.152 76.9995 26.248 76.7329 26.248ZM14 54.12H30V38.12H14V54.12ZM43.9456 41.848L40.3136 48.792V53H38.8576V48.792L35.2096 41.848H36.8256L39.5776 47.496L42.3296 41.848H43.9456ZM49.6254 53.144C48.804 53.144 48.0574 52.9573 47.3854 52.584C46.724 52.2107 46.2014 51.6827 45.8174 51C45.444 50.3067 45.2574 49.5067 45.2574 48.6C45.2574 47.704 45.4494 46.9147 45.8334 46.232C46.228 45.5387 46.7614 45.0107 47.4334 44.648C48.1054 44.2747 48.8574 44.088 49.6894 44.088C50.5214 44.088 51.2734 44.2747 51.9454 44.648C52.6174 45.0107 53.1454 45.5333 53.5294 46.216C53.924 46.8987 54.1214 47.6933 54.1214 48.6C54.1214 49.5067 53.9187 50.3067 53.5134 51C53.1187 51.6827 52.58 52.2107 51.8974 52.584C51.2147 52.9573 50.4574 53.144 49.6254 53.144ZM49.6254 51.864C50.148 51.864 50.6387 51.7413 51.0974 51.496C51.556 51.2507 51.924 50.8827 52.2014 50.392C52.4894 49.9013 52.6334 49.304 52.6334 48.6C52.6334 47.896 52.4947 47.2987 52.2174 46.808C51.94 46.3173 51.5774 45.9547 51.1294 45.72C50.6814 45.4747 50.196 45.352 49.6734 45.352C49.14 45.352 48.6494 45.4747 48.2014 45.72C47.764 45.9547 47.412 46.3173 47.1454 46.808C46.8787 47.2987 46.7454 47.896 46.7454 48.6C46.7454 49.3147 46.8734 49.9173 47.1294 50.408C47.396 50.8987 47.748 51.2667 48.1854 51.512C48.6227 51.7467 49.1027 51.864 49.6254 51.864ZM64.1317 44.232V53H62.6757V51.704C62.3984 52.152 62.0091 52.504 61.5077 52.76C61.0171 53.0053 60.4731 53.128 59.8757 53.128C59.1931 53.128 58.5797 52.9893 58.0357 52.712C57.4917 52.424 57.0597 51.9973 56.7397 51.432C56.4304 50.8667 56.2757 50.1787 56.2757 49.368V44.232H57.7157V49.176C57.7157 50.04 57.9344 50.7067 58.3717 51.176C58.8091 51.6347 59.4064 51.864 60.1637 51.864C60.9424 51.864 61.5557 51.624 62.0037 51.144C62.4517 50.664 62.6757 49.9653 62.6757 49.048V44.232H64.1317ZM68.3661 45.656C68.6221 45.1547 68.9848 44.7653 69.4541 44.488C69.9341 44.2107 70.5155 44.072 71.1981 44.072V45.576H70.8141C69.1821 45.576 68.3661 46.4613 68.3661 48.232V53H66.9101V44.232H68.3661V45.656ZM77.2405 48.584C77.2405 47.688 77.4218 46.904 77.7845 46.232C78.1472 45.5493 78.6432 45.0213 79.2725 44.648C79.9125 44.2747 80.6218 44.088 81.4005 44.088C82.1685 44.088 82.8352 44.2533 83.4005 44.584C83.9658 44.9147 84.3872 45.3307 84.6645 45.832V44.232H86.1365V53H84.6645V51.368C84.3765 51.88 83.9445 52.3067 83.3685 52.648C82.8032 52.9787 82.1418 53.144 81.3845 53.144C80.6058 53.144 79.9018 52.952 79.2725 52.568C78.6432 52.184 78.1472 51.6453 77.7845 50.952C77.4218 50.2587 77.2405 49.4693 77.2405 48.584ZM84.6645 48.6C84.6645 47.9387 84.5312 47.3627 84.2645 46.872C83.9978 46.3813 83.6352 46.008 83.1765 45.752C82.7285 45.4853 82.2325 45.352 81.6885 45.352C81.1445 45.352 80.6485 45.48 80.2005 45.736C79.7525 45.992 79.3952 46.3653 79.1285 46.856C78.8618 47.3467 78.7285 47.9227 78.7285 48.584C78.7285 49.256 78.8618 49.8427 79.1285 50.344C79.3952 50.8347 79.7525 51.2133 80.2005 51.48C80.6485 51.736 81.1445 51.864 81.6885 51.864C82.2325 51.864 82.7285 51.736 83.1765 51.48C83.6352 51.2133 83.9978 50.8347 84.2645 50.344C84.5312 49.8427 84.6645 49.2613 84.6645 48.6ZM88.373 48.6C88.373 47.6933 88.5543 46.904 88.917 46.232C89.2797 45.5493 89.781 45.0213 90.421 44.648C91.0717 44.2747 91.813 44.088 92.645 44.088C93.7223 44.088 94.6077 44.3493 95.301 44.872C96.005 45.3947 96.469 46.12 96.693 47.048H95.125C94.9757 46.5147 94.6823 46.0933 94.245 45.784C93.8183 45.4747 93.285 45.32 92.645 45.32C91.813 45.32 91.141 45.608 90.629 46.184C90.117 46.7493 89.861 47.5547 89.861 48.6C89.861 49.656 90.117 50.472 90.629 51.048C91.141 51.624 91.813 51.912 92.645 51.912C93.285 51.912 93.8183 51.7627 94.245 51.464C94.6717 51.1653 94.965 50.7387 95.125 50.184H96.693C96.4583 51.08 95.989 51.8 95.285 52.344C94.581 52.8773 93.701 53.144 92.645 53.144C91.813 53.144 91.0717 52.9573 90.421 52.584C89.781 52.2107 89.2797 51.6827 88.917 51C88.5543 50.3173 88.373 49.5173 88.373 48.6ZM98.4117 48.6C98.4117 47.6933 98.5931 46.904 98.9557 46.232C99.3184 45.5493 99.8197 45.0213 100.46 44.648C101.11 44.2747 101.852 44.088 102.684 44.088C103.761 44.088 104.646 44.3493 105.34 44.872C106.044 45.3947 106.508 46.12 106.732 47.048H105.164C105.014 46.5147 104.721 46.0933 104.284 45.784C103.857 45.4747 103.324 45.32 102.684 45.32C101.852 45.32 101.18 45.608 100.668 46.184C100.156 46.7493 99.8997 47.5547 99.8997 48.6C99.8997 49.656 100.156 50.472 100.668 51.048C101.18 51.624 101.852 51.912 102.684 51.912C103.324 51.912 103.857 51.7627 104.284 51.464C104.71 51.1653 105.004 50.7387 105.164 50.184H106.732C106.497 51.08 106.028 51.8 105.324 52.344C104.62 52.8773 103.74 53.144 102.684 53.144C101.852 53.144 101.11 52.9573 100.46 52.584C99.8197 52.2107 99.3184 51.6827 98.9557 51C98.5931 50.3173 98.4117 49.5173 98.4117 48.6ZM112.818 53.144C111.997 53.144 111.25 52.9573 110.578 52.584C109.917 52.2107 109.394 51.6827 109.01 51C108.637 50.3067 108.45 49.5067 108.45 48.6C108.45 47.704 108.642 46.9147 109.026 46.232C109.421 45.5387 109.954 45.0107 110.626 44.648C111.298 44.2747 112.05 44.088 112.882 44.088C113.714 44.088 114.466 44.2747 115.138 44.648C115.81 45.0107 116.338 45.5333 116.722 46.216C117.117 46.8987 117.314 47.6933 117.314 48.6C117.314 49.5067 117.112 50.3067 116.706 51C116.312 51.6827 115.773 52.2107 115.09 52.584C114.408 52.9573 113.65 53.144 112.818 53.144ZM112.818 51.864C113.341 51.864 113.832 51.7413 114.29 51.496C114.749 51.2507 115.117 50.8827 115.394 50.392C115.682 49.9013 115.826 49.304 115.826 48.6C115.826 47.896 115.688 47.2987 115.41 46.808C115.133 46.3173 114.77 45.9547 114.322 45.72C113.874 45.4747 113.389 45.352 112.866 45.352C112.333 45.352 111.842 45.4747 111.394 45.72C110.957 45.9547 110.605 46.3173 110.338 46.808C110.072 47.2987 109.938 47.896 109.938 48.6C109.938 49.3147 110.066 49.9173 110.322 50.408C110.589 50.8987 110.941 51.2667 111.378 51.512C111.816 51.7467 112.296 51.864 112.818 51.864ZM127.325 44.232V53H125.869V51.704C125.592 52.152 125.202 52.504 124.701 52.76C124.21 53.0053 123.666 53.128 123.069 53.128C122.386 53.128 121.773 52.9893 121.229 52.712C120.685 52.424 120.253 51.9973 119.933 51.432C119.624 50.8667 119.469 50.1787 119.469 49.368V44.232H120.909V49.176C120.909 50.04 121.128 50.7067 121.565 51.176C122.002 51.6347 122.6 51.864 123.357 51.864C124.136 51.864 124.749 51.624 125.197 51.144C125.645 50.664 125.869 49.9653 125.869 49.048V44.232H127.325ZM134.375 44.072C135.442 44.072 136.306 44.3973 136.967 45.048C137.629 45.688 137.959 46.616 137.959 47.832V53H136.519V48.04C136.519 47.1653 136.301 46.4987 135.863 46.04C135.426 45.5707 134.829 45.336 134.071 45.336C133.303 45.336 132.69 45.576 132.231 46.056C131.783 46.536 131.559 47.2347 131.559 48.152V53H130.103V44.232H131.559V45.48C131.847 45.032 132.237 44.6853 132.727 44.44C133.229 44.1947 133.778 44.072 134.375 44.072ZM142.434 45.432V50.6C142.434 51.0267 142.524 51.3307 142.706 51.512C142.887 51.6827 143.202 51.768 143.65 51.768H144.722V53H143.41C142.599 53 141.991 52.8133 141.586 52.44C141.18 52.0667 140.978 51.4533 140.978 50.6V45.432H139.842V44.232H140.978V42.024H142.434V44.232H144.722V45.432H142.434ZM159.391 48.28C159.391 48.5573 159.375 48.8507 159.343 49.16H152.335C152.389 50.024 152.682 50.7013 153.215 51.192C153.759 51.672 154.415 51.912 155.183 51.912C155.813 51.912 156.335 51.768 156.751 51.48C157.178 51.1813 157.477 50.7867 157.647 50.296H159.215C158.981 51.1387 158.511 51.8267 157.807 52.36C157.103 52.8827 156.229 53.144 155.183 53.144C154.351 53.144 153.605 52.9573 152.943 52.584C152.293 52.2107 151.781 51.6827 151.407 51C151.034 50.3067 150.847 49.5067 150.847 48.6C150.847 47.6933 151.029 46.8987 151.391 46.216C151.754 45.5333 152.261 45.0107 152.911 44.648C153.573 44.2747 154.33 44.088 155.183 44.088C156.015 44.088 156.751 44.2693 157.391 44.632C158.031 44.9947 158.522 45.496 158.863 46.136C159.215 46.7653 159.391 47.48 159.391 48.28ZM157.887 47.976C157.887 47.4213 157.765 46.9467 157.519 46.552C157.274 46.1467 156.938 45.8427 156.511 45.64C156.095 45.4267 155.631 45.32 155.119 45.32C154.383 45.32 153.754 45.5547 153.231 46.024C152.719 46.4933 152.426 47.144 152.351 47.976H157.887ZM172.177 44.072C172.86 44.072 173.468 44.216 174.001 44.504C174.535 44.7813 174.956 45.2027 175.265 45.768C175.575 46.3333 175.729 47.0213 175.729 47.832V53H174.289V48.04C174.289 47.1653 174.071 46.4987 173.633 46.04C173.207 45.5707 172.625 45.336 171.889 45.336C171.132 45.336 170.529 45.5813 170.081 46.072C169.633 46.552 169.409 47.2507 169.409 48.168V53H167.969V48.04C167.969 47.1653 167.751 46.4987 167.313 46.04C166.887 45.5707 166.305 45.336 165.569 45.336C164.812 45.336 164.209 45.5813 163.761 46.072C163.313 46.552 163.089 47.2507 163.089 48.168V53H161.633V44.232H163.089V45.496C163.377 45.0373 163.761 44.6853 164.241 44.44C164.732 44.1947 165.271 44.072 165.857 44.072C166.593 44.072 167.244 44.2373 167.809 44.568C168.375 44.8987 168.796 45.384 169.073 46.024C169.319 45.4053 169.724 44.9253 170.289 44.584C170.855 44.2427 171.484 44.072 172.177 44.072ZM177.894 48.584C177.894 47.688 178.075 46.904 178.438 46.232C178.8 45.5493 179.296 45.0213 179.926 44.648C180.566 44.2747 181.275 44.088 182.054 44.088C182.822 44.088 183.488 44.2533 184.054 44.584C184.619 44.9147 185.04 45.3307 185.318 45.832V44.232H186.79V53H185.318V51.368C185.03 51.88 184.598 52.3067 184.022 52.648C183.456 52.9787 182.795 53.144 182.038 53.144C181.259 53.144 180.555 52.952 179.926 52.568C179.296 52.184 178.8 51.6453 178.438 50.952C178.075 50.2587 177.894 49.4693 177.894 48.584ZM185.318 48.6C185.318 47.9387 185.184 47.3627 184.918 46.872C184.651 46.3813 184.288 46.008 183.83 45.752C183.382 45.4853 182.886 45.352 182.342 45.352C181.798 45.352 181.302 45.48 180.854 45.736C180.406 45.992 180.048 46.3653 179.782 46.856C179.515 47.3467 179.382 47.9227 179.382 48.584C179.382 49.256 179.515 49.8427 179.782 50.344C180.048 50.8347 180.406 51.2133 180.854 51.48C181.302 51.736 181.798 51.864 182.342 51.864C182.886 51.864 183.382 51.736 183.83 51.48C184.288 51.2133 184.651 50.8347 184.918 50.344C185.184 49.8427 185.318 49.2613 185.318 48.6ZM190.322 42.808C190.045 42.808 189.81 42.712 189.618 42.52C189.426 42.328 189.33 42.0933 189.33 41.816C189.33 41.5387 189.426 41.304 189.618 41.112C189.81 40.92 190.045 40.824 190.322 40.824C190.589 40.824 190.813 40.92 190.994 41.112C191.186 41.304 191.282 41.5387 191.282 41.816C191.282 42.0933 191.186 42.328 190.994 42.52C190.813 42.712 190.589 42.808 190.322 42.808ZM191.026 44.232V53H189.57V44.232H191.026ZM195.284 41.16V53H193.828V41.16H195.284ZM14 74.12H30V58.12H14V74.12ZM42.7296 70.52H37.8656L36.9696 73H35.4336L39.4656 61.912H41.1456L45.1616 73H43.6256L42.7296 70.52ZM42.3136 69.336L40.2976 63.704L38.2816 69.336H42.3136ZM53.2805 65.864C53.5792 65.3413 54.0165 64.9147 54.5925 64.584C55.1685 64.2533 55.8245 64.088 56.5605 64.088C57.3498 64.088 58.0592 64.2747 58.6885 64.648C59.3178 65.0213 59.8138 65.5493 60.1765 66.232C60.5392 66.904 60.7205 67.688 60.7205 68.584C60.7205 69.4693 60.5392 70.2587 60.1765 70.952C59.8138 71.6453 59.3125 72.184 58.6725 72.568C58.0432 72.952 57.3392 73.144 56.5605 73.144C55.8032 73.144 55.1365 72.9787 54.5605 72.648C53.9952 72.3173 53.5685 71.896 53.2805 71.384V73H51.8245V61.16H53.2805V65.864ZM59.2325 68.584C59.2325 67.9227 59.0992 67.3467 58.8325 66.856C58.5658 66.3653 58.2032 65.992 57.7445 65.736C57.2965 65.48 56.8005 65.352 56.2565 65.352C55.7232 65.352 55.2272 65.4853 54.7685 65.752C54.3205 66.008 53.9578 66.3867 53.6805 66.888C53.4138 67.3787 53.2805 67.9493 53.2805 68.6C53.2805 69.2613 53.4138 69.8427 53.6805 70.344C53.9578 70.8347 54.3205 71.2133 54.7685 71.48C55.2272 71.736 55.7232 71.864 56.2565 71.864C56.8005 71.864 57.2965 71.736 57.7445 71.48C58.2032 71.2133 58.5658 70.8347 58.8325 70.344C59.0992 69.8427 59.2325 69.256 59.2325 68.584ZM64.413 65.656C64.669 65.1547 65.0317 64.7653 65.501 64.488C65.981 64.2107 66.5623 64.072 67.245 64.072V65.576H66.861C65.229 65.576 64.413 66.4613 64.413 68.232V73H62.957V64.232H64.413V65.656ZM69.9977 62.808C69.7204 62.808 69.4857 62.712 69.2937 62.52C69.1017 62.328 69.0057 62.0933 69.0057 61.816C69.0057 61.5387 69.1017 61.304 69.2937 61.112C69.4857 60.92 69.7204 60.824 69.9977 60.824C70.2644 60.824 70.4884 60.92 70.6697 61.112C70.8617 61.304 70.9577 61.5387 70.9577 61.816C70.9577 62.0933 70.8617 62.328 70.6697 62.52C70.4884 62.712 70.2644 62.808 69.9977 62.808ZM70.7017 64.232V73H69.2457V64.232H70.7017ZM81.5032 68.28C81.5032 68.5573 81.4872 68.8507 81.4552 69.16H74.4472C74.5006 70.024 74.7939 70.7013 75.3272 71.192C75.8712 71.672 76.5272 71.912 77.2952 71.912C77.9246 71.912 78.4472 71.768 78.8632 71.48C79.2899 71.1813 79.5886 70.7867 79.7592 70.296H81.3272C81.0926 71.1387 80.6232 71.8267 79.9192 72.36C79.2152 72.8827 78.3406 73.144 77.2952 73.144C76.4632 73.144 75.7166 72.9573 75.0552 72.584C74.4046 72.2107 73.8926 71.6827 73.5192 71C73.1459 70.3067 72.9592 69.5067 72.9592 68.6C72.9592 67.6933 73.1406 66.8987 73.5032 66.216C73.8659 65.5333 74.3726 65.0107 75.0232 64.648C75.6846 64.2747 76.4419 64.088 77.2952 64.088C78.1272 64.088 78.8632 64.2693 79.5032 64.632C80.1432 64.9947 80.6339 65.496 80.9752 66.136C81.3272 66.7653 81.5032 67.48 81.5032 68.28ZM79.9992 67.976C79.9992 67.4213 79.8766 66.9467 79.6312 66.552C79.3859 66.1467 79.0499 65.8427 78.6232 65.64C78.2072 65.4267 77.7432 65.32 77.2312 65.32C76.4952 65.32 75.8659 65.5547 75.3432 66.024C74.8312 66.4933 74.5379 67.144 74.4632 67.976H79.9992ZM87.3131 65.432H85.4731V73H84.0171V65.432H82.8811V64.232H84.0171V63.608C84.0171 62.6267 84.2678 61.912 84.7691 61.464C85.2811 61.0053 86.0971 60.776 87.2171 60.776V61.992C86.5771 61.992 86.1238 62.12 85.8571 62.376C85.6011 62.6213 85.4731 63.032 85.4731 63.608V64.232H87.3131V65.432ZM101.916 68.28C101.916 68.5573 101.9 68.8507 101.868 69.16H94.8604C94.9137 70.024 95.207 70.7013 95.7404 71.192C96.2844 71.672 96.9404 71.912 97.7084 71.912C98.3377 71.912 98.8604 71.768 99.2764 71.48C99.703 71.1813 100.002 70.7867 100.172 70.296H101.74C101.506 71.1387 101.036 71.8267 100.332 72.36C99.6284 72.8827 98.7537 73.144 97.7084 73.144C96.8764 73.144 96.1297 72.9573 95.4684 72.584C94.8177 72.2107 94.3057 71.6827 93.9324 71C93.559 70.3067 93.3724 69.5067 93.3724 68.6C93.3724 67.6933 93.5537 66.8987 93.9164 66.216C94.279 65.5333 94.7857 65.0107 95.4364 64.648C96.0977 64.2747 96.855 64.088 97.7084 64.088C98.5404 64.088 99.2764 64.2693 99.9164 64.632C100.556 64.9947 101.047 65.496 101.388 66.136C101.74 66.7653 101.916 67.48 101.916 68.28ZM100.412 67.976C100.412 67.4213 100.29 66.9467 100.044 66.552C99.799 66.1467 99.463 65.8427 99.0364 65.64C98.6204 65.4267 98.1564 65.32 97.6444 65.32C96.9084 65.32 96.279 65.5547 95.7564 66.024C95.2444 66.4933 94.951 67.144 94.8764 67.976H100.412ZM108.734 73L106.654 69.736L104.654 73H103.134L105.966 68.648L103.134 64.232H104.782L106.862 67.48L108.846 64.232H110.366L107.55 68.568L110.382 73H108.734ZM113.59 65.848C113.878 65.3467 114.305 64.9307 114.87 64.6C115.446 64.2587 116.113 64.088 116.87 64.088C117.649 64.088 118.353 64.2747 118.982 64.648C119.622 65.0213 120.124 65.5493 120.486 66.232C120.849 66.904 121.03 67.688 121.03 68.584C121.03 69.4693 120.849 70.2587 120.486 70.952C120.124 71.6453 119.622 72.184 118.982 72.568C118.353 72.952 117.649 73.144 116.87 73.144C116.124 73.144 115.462 72.9787 114.886 72.648C114.321 72.3067 113.889 71.8853 113.59 71.384V77.16H112.134V64.232H113.59V65.848ZM119.542 68.584C119.542 67.9227 119.409 67.3467 119.142 66.856C118.876 66.3653 118.513 65.992 118.054 65.736C117.606 65.48 117.11 65.352 116.566 65.352C116.033 65.352 115.537 65.4853 115.078 65.752C114.63 66.008 114.268 66.3867 113.99 66.888C113.724 67.3787 113.59 67.9493 113.59 68.6C113.59 69.2613 113.724 69.8427 113.99 70.344C114.268 70.8347 114.63 71.2133 115.078 71.48C115.537 71.736 116.033 71.864 116.566 71.864C117.11 71.864 117.606 71.736 118.054 71.48C118.513 71.2133 118.876 70.8347 119.142 70.344C119.409 69.8427 119.542 69.256 119.542 68.584ZM124.723 61.16V73H123.267V61.16H124.723ZM126.98 68.584C126.98 67.688 127.162 66.904 127.524 66.232C127.887 65.5493 128.383 65.0213 129.012 64.648C129.652 64.2747 130.362 64.088 131.14 64.088C131.908 64.088 132.575 64.2533 133.14 64.584C133.706 64.9147 134.127 65.3307 134.404 65.832V64.232H135.876V73H134.404V71.368C134.116 71.88 133.684 72.3067 133.108 72.648C132.543 72.9787 131.882 73.144 131.124 73.144C130.346 73.144 129.642 72.952 129.012 72.568C128.383 72.184 127.887 71.6453 127.524 70.952C127.162 70.2587 126.98 69.4693 126.98 68.584ZM134.404 68.6C134.404 67.9387 134.271 67.3627 134.004 66.872C133.738 66.3813 133.375 66.008 132.916 65.752C132.468 65.4853 131.972 65.352 131.428 65.352C130.884 65.352 130.388 65.48 129.94 65.736C129.492 65.992 129.135 66.3653 128.868 66.856C128.602 67.3467 128.468 67.9227 128.468 68.584C128.468 69.256 128.602 69.8427 128.868 70.344C129.135 70.8347 129.492 71.2133 129.94 71.48C130.388 71.736 130.884 71.864 131.428 71.864C131.972 71.864 132.468 71.736 132.916 71.48C133.375 71.2133 133.738 70.8347 134.004 70.344C134.271 69.8427 134.404 69.2613 134.404 68.6ZM142.929 64.072C143.996 64.072 144.86 64.3973 145.521 65.048C146.182 65.688 146.513 66.616 146.513 67.832V73H145.073V68.04C145.073 67.1653 144.854 66.4987 144.417 66.04C143.98 65.5707 143.382 65.336 142.625 65.336C141.857 65.336 141.244 65.576 140.785 66.056C140.337 66.536 140.113 67.2347 140.113 68.152V73H138.657V64.232H140.113V65.48C140.401 65.032 140.79 64.6853 141.281 64.44C141.782 64.1947 142.332 64.072 142.929 64.072ZM148.667 68.584C148.667 67.688 148.849 66.904 149.211 66.232C149.574 65.5493 150.07 65.0213 150.699 64.648C151.339 64.2747 152.049 64.088 152.827 64.088C153.595 64.088 154.262 64.2533 154.827 64.584C155.393 64.9147 155.814 65.3307 156.091 65.832V64.232H157.563V73H156.091V71.368C155.803 71.88 155.371 72.3067 154.795 72.648C154.23 72.9787 153.569 73.144 152.811 73.144C152.033 73.144 151.329 72.952 150.699 72.568C150.07 72.184 149.574 71.6453 149.211 70.952C148.849 70.2587 148.667 69.4693 148.667 68.584ZM156.091 68.6C156.091 67.9387 155.958 67.3627 155.691 66.872C155.425 66.3813 155.062 66.008 154.603 65.752C154.155 65.4853 153.659 65.352 153.115 65.352C152.571 65.352 152.075 65.48 151.627 65.736C151.179 65.992 150.822 66.3653 150.555 66.856C150.289 67.3467 150.155 67.9227 150.155 68.584C150.155 69.256 150.289 69.8427 150.555 70.344C150.822 70.8347 151.179 71.2133 151.627 71.48C152.075 71.736 152.571 71.864 153.115 71.864C153.659 71.864 154.155 71.736 154.603 71.48C155.062 71.2133 155.425 70.8347 155.691 70.344C155.958 69.8427 156.091 69.2613 156.091 68.6ZM162.12 65.432V70.6C162.12 71.0267 162.211 71.3307 162.392 71.512C162.573 71.6827 162.888 71.768 163.336 71.768H164.408V73H163.096C162.285 73 161.677 72.8133 161.272 72.44C160.867 72.0667 160.664 71.4533 160.664 70.6V65.432H159.528V64.232H160.664V62.024H162.12V64.232H164.408V65.432H162.12ZM167.244 62.808C166.967 62.808 166.732 62.712 166.54 62.52C166.348 62.328 166.252 62.0933 166.252 61.816C166.252 61.5387 166.348 61.304 166.54 61.112C166.732 60.92 166.967 60.824 167.244 60.824C167.511 60.824 167.735 60.92 167.916 61.112C168.108 61.304 168.204 61.5387 168.204 61.816C168.204 62.0933 168.108 62.328 167.916 62.52C167.735 62.712 167.511 62.808 167.244 62.808ZM167.948 64.232V73H166.492V64.232H167.948ZM174.574 73.144C173.752 73.144 173.006 72.9573 172.334 72.584C171.672 72.2107 171.15 71.6827 170.766 71C170.392 70.3067 170.206 69.5067 170.206 68.6C170.206 67.704 170.398 66.9147 170.782 66.232C171.176 65.5387 171.71 65.0107 172.382 64.648C173.054 64.2747 173.806 64.088 174.638 64.088C175.47 64.088 176.222 64.2747 176.894 64.648C177.566 65.0107 178.094 65.5333 178.478 66.216C178.872 66.8987 179.07 67.6933 179.07 68.6C179.07 69.5067 178.867 70.3067 178.462 71C178.067 71.6827 177.528 72.2107 176.846 72.584C176.163 72.9573 175.406 73.144 174.574 73.144ZM174.574 71.864C175.096 71.864 175.587 71.7413 176.046 71.496C176.504 71.2507 176.872 70.8827 177.15 70.392C177.438 69.9013 177.582 69.304 177.582 68.6C177.582 67.896 177.443 67.2987 177.166 66.808C176.888 66.3173 176.526 65.9547 176.078 65.72C175.63 65.4747 175.144 65.352 174.622 65.352C174.088 65.352 173.598 65.4747 173.15 65.72C172.712 65.9547 172.36 66.3173 172.094 66.808C171.827 67.2987 171.694 67.896 171.694 68.6C171.694 69.3147 171.822 69.9173 172.078 70.408C172.344 70.8987 172.696 71.2667 173.134 71.512C173.571 71.7467 174.051 71.864 174.574 71.864ZM185.576 64.072C186.643 64.072 187.507 64.3973 188.168 65.048C188.829 65.688 189.16 66.616 189.16 67.832V73H187.72V68.04C187.72 67.1653 187.501 66.4987 187.064 66.04C186.627 65.5707 186.029 65.336 185.272 65.336C184.504 65.336 183.891 65.576 183.432 66.056C182.984 66.536 182.76 67.2347 182.76 68.152V73H181.304V64.232H182.76V65.48C183.048 65.032 183.437 64.6853 183.928 64.44C184.429 64.1947 184.979 64.072 185.576 64.072ZM200.268 73.144C199.447 73.144 198.7 72.9573 198.028 72.584C197.367 72.2107 196.844 71.6827 196.46 71C196.087 70.3067 195.9 69.5067 195.9 68.6C195.9 67.704 196.092 66.9147 196.476 66.232C196.871 65.5387 197.404 65.0107 198.076 64.648C198.748 64.2747 199.5 64.088 200.332 64.088C201.164 64.088 201.916 64.2747 202.588 64.648C203.26 65.0107 203.788 65.5333 204.172 66.216C204.567 66.8987 204.764 67.6933 204.764 68.6C204.764 69.5067 204.561 70.3067 204.156 71C203.761 71.6827 203.223 72.2107 202.54 72.584C201.857 72.9573 201.1 73.144 200.268 73.144ZM200.268 71.864C200.791 71.864 201.281 71.7413 201.74 71.496C202.199 71.2507 202.567 70.8827 202.844 70.392C203.132 69.9013 203.276 69.304 203.276 68.6C203.276 67.896 203.137 67.2987 202.86 66.808C202.583 66.3173 202.22 65.9547 201.772 65.72C201.324 65.4747 200.839 65.352 200.316 65.352C199.783 65.352 199.292 65.4747 198.844 65.72C198.407 65.9547 198.055 66.3173 197.788 66.808C197.521 67.2987 197.388 67.896 197.388 68.6C197.388 69.3147 197.516 69.9173 197.772 70.408C198.039 70.8987 198.391 71.2667 198.828 71.512C199.265 71.7467 199.745 71.864 200.268 71.864ZM210.566 65.432H208.726V73H207.27V65.432H206.134V64.232H207.27V63.608C207.27 62.6267 207.521 61.912 208.022 61.464C208.534 61.0053 209.35 60.776 210.47 60.776V61.992C209.83 61.992 209.377 62.12 209.11 62.376C208.854 62.6213 208.726 63.032 208.726 63.608V64.232H210.566V65.432ZM224.722 64.232L219.442 77.128H217.938L219.666 72.904L216.13 64.232H217.746L220.498 71.336L223.218 64.232H224.722ZM230.329 73.144C229.508 73.144 228.761 72.9573 228.089 72.584C227.428 72.2107 226.905 71.6827 226.521 71C226.148 70.3067 225.961 69.5067 225.961 68.6C225.961 67.704 226.153 66.9147 226.537 66.232C226.932 65.5387 227.465 65.0107 228.137 64.648C228.809 64.2747 229.561 64.088 230.393 64.088C231.225 64.088 231.977 64.2747 232.649 64.648C233.321 65.0107 233.849 65.5333 234.233 66.216C234.628 66.8987 234.825 67.6933 234.825 68.6C234.825 69.5067 234.622 70.3067 234.217 71C233.822 71.6827 233.284 72.2107 232.601 72.584C231.918 72.9573 231.161 73.144 230.329 73.144ZM230.329 71.864C230.852 71.864 231.342 71.7413 231.801 71.496C232.26 71.2507 232.628 70.8827 232.905 70.392C233.193 69.9013 233.337 69.304 233.337 68.6C233.337 67.896 233.198 67.2987 232.921 66.808C232.644 66.3173 232.281 65.9547 231.833 65.72C231.385 65.4747 230.9 65.352 230.377 65.352C229.844 65.352 229.353 65.4747 228.905 65.72C228.468 65.9547 228.116 66.3173 227.849 66.808C227.582 67.2987 227.449 67.896 227.449 68.6C227.449 69.3147 227.577 69.9173 227.833 70.408C228.1 70.8987 228.452 71.2667 228.889 71.512C229.326 71.7467 229.806 71.864 230.329 71.864ZM244.835 64.232V73H243.379V71.704C243.102 72.152 242.713 72.504 242.211 72.76C241.721 73.0053 241.177 73.128 240.579 73.128C239.897 73.128 239.283 72.9893 238.739 72.712C238.195 72.424 237.763 71.9973 237.443 71.432C237.134 70.8667 236.979 70.1787 236.979 69.368V64.232H238.419V69.176C238.419 70.04 238.638 70.7067 239.075 71.176C239.513 71.6347 240.11 71.864 240.867 71.864C241.646 71.864 242.259 71.624 242.707 71.144C243.155 70.664 243.379 69.9653 243.379 69.048V64.232H244.835ZM249.07 65.656C249.326 65.1547 249.689 64.7653 250.158 64.488C250.638 64.2107 251.219 64.072 251.902 64.072V65.576H251.518C249.886 65.576 249.07 66.4613 249.07 68.232V73H247.614V64.232H249.07V65.656ZM259.944 65.656C260.2 65.1547 260.563 64.7653 261.032 64.488C261.512 64.2107 262.094 64.072 262.776 64.072V65.576H262.392C260.76 65.576 259.944 66.4613 259.944 68.232V73H258.488V64.232H259.944V65.656ZM272.777 68.28C272.777 68.5573 272.761 68.8507 272.729 69.16H265.721C265.774 70.024 266.068 70.7013 266.601 71.192C267.145 71.672 267.801 71.912 268.569 71.912C269.198 71.912 269.721 71.768 270.137 71.48C270.564 71.1813 270.862 70.7867 271.033 70.296H272.601C272.366 71.1387 271.897 71.8267 271.193 72.36C270.489 72.8827 269.614 73.144 268.569 73.144C267.737 73.144 266.99 72.9573 266.329 72.584C265.678 72.2107 265.166 71.6827 264.793 71C264.42 70.3067 264.233 69.5067 264.233 68.6C264.233 67.6933 264.414 66.8987 264.777 66.216C265.14 65.5333 265.646 65.0107 266.297 64.648C266.958 64.2747 267.716 64.088 268.569 64.088C269.401 64.088 270.137 64.2693 270.777 64.632C271.417 64.9947 271.908 65.496 272.249 66.136C272.601 66.7653 272.777 67.48 272.777 68.28ZM271.273 67.976C271.273 67.4213 271.15 66.9467 270.905 66.552C270.66 66.1467 270.324 65.8427 269.897 65.64C269.481 65.4267 269.017 65.32 268.505 65.32C267.769 65.32 267.14 65.5547 266.617 66.024C266.105 66.4933 265.812 67.144 265.737 67.976H271.273ZM278.587 65.432H276.747V73H275.291V65.432H274.155V64.232H275.291V63.608C275.291 62.6267 275.542 61.912 276.043 61.464C276.555 61.0053 277.371 60.776 278.491 60.776V61.992C277.851 61.992 277.398 62.12 277.131 62.376C276.875 62.6213 276.747 63.032 276.747 63.608V64.232H278.587V65.432ZM288.38 64.232V73H286.924V71.704C286.647 72.152 286.258 72.504 285.756 72.76C285.266 73.0053 284.722 73.128 284.124 73.128C283.442 73.128 282.828 72.9893 282.284 72.712C281.74 72.424 281.308 71.9973 280.988 71.432C280.679 70.8667 280.524 70.1787 280.524 69.368V64.232H281.964V69.176C281.964 70.04 282.183 70.7067 282.62 71.176C283.058 71.6347 283.655 71.864 284.412 71.864C285.191 71.864 285.804 71.624 286.252 71.144C286.7 70.664 286.924 69.9653 286.924 69.048V64.232H288.38ZM295.431 64.072C296.498 64.072 297.362 64.3973 298.023 65.048C298.684 65.688 299.015 66.616 299.015 67.832V73H297.575V68.04C297.575 67.1653 297.356 66.4987 296.919 66.04C296.482 65.5707 295.884 65.336 295.127 65.336C294.359 65.336 293.746 65.576 293.287 66.056C292.839 66.536 292.615 67.2347 292.615 68.152V73H291.159V64.232H292.615V65.48C292.903 65.032 293.292 64.6853 293.783 64.44C294.284 64.1947 294.834 64.072 295.431 64.072ZM301.169 68.584C301.169 67.688 301.351 66.904 301.713 66.232C302.076 65.5493 302.572 65.0213 303.201 64.648C303.841 64.2747 304.556 64.088 305.345 64.088C306.028 64.088 306.663 64.248 307.249 64.568C307.836 64.8773 308.284 65.288 308.593 65.8V61.16H310.065V73H308.593V71.352C308.305 71.8747 307.879 72.3067 307.313 72.648C306.748 72.9787 306.087 73.144 305.329 73.144C304.551 73.144 303.841 72.952 303.201 72.568C302.572 72.184 302.076 71.6453 301.713 70.952C301.351 70.2587 301.169 69.4693 301.169 68.584ZM308.593 68.6C308.593 67.9387 308.46 67.3627 308.193 66.872C307.927 66.3813 307.564 66.008 307.105 65.752C306.657 65.4853 306.161 65.352 305.617 65.352C305.073 65.352 304.577 65.48 304.129 65.736C303.681 65.992 303.324 66.3653 303.057 66.856C302.791 67.3467 302.657 67.9227 302.657 68.584C302.657 69.256 302.791 69.8427 303.057 70.344C303.324 70.8347 303.681 71.2133 304.129 71.48C304.577 71.736 305.073 71.864 305.617 71.864C306.161 71.864 306.657 71.736 307.105 71.48C307.564 71.2133 307.927 70.8347 308.193 70.344C308.46 69.8427 308.593 69.2613 308.593 68.6ZM318.887 65.656C319.143 65.1547 319.506 64.7653 319.975 64.488C320.455 64.2107 321.037 64.072 321.719 64.072V65.576H321.335C319.703 65.576 318.887 66.4613 318.887 68.232V73H317.431V64.232H318.887V65.656ZM331.72 68.28C331.72 68.5573 331.704 68.8507 331.672 69.16H324.664C324.717 70.024 325.011 70.7013 325.544 71.192C326.088 71.672 326.744 71.912 327.512 71.912C328.141 71.912 328.664 71.768 329.08 71.48C329.507 71.1813 329.805 70.7867 329.976 70.296H331.544C331.309 71.1387 330.84 71.8267 330.136 72.36C329.432 72.8827 328.557 73.144 327.512 73.144C326.68 73.144 325.933 72.9573 325.272 72.584C324.621 72.2107 324.109 71.6827 323.736 71C323.363 70.3067 323.176 69.5067 323.176 68.6C323.176 67.6933 323.357 66.8987 323.72 66.216C324.083 65.5333 324.589 65.0107 325.24 64.648C325.901 64.2747 326.659 64.088 327.512 64.088C328.344 64.088 329.08 64.2693 329.72 64.632C330.36 64.9947 330.851 65.496 331.192 66.136C331.544 66.7653 331.72 67.48 331.72 68.28ZM330.216 67.976C330.216 67.4213 330.093 66.9467 329.848 66.552C329.603 66.1467 329.267 65.8427 328.84 65.64C328.424 65.4267 327.96 65.32 327.448 65.32C326.712 65.32 326.083 65.5547 325.56 66.024C325.048 66.4933 324.755 67.144 324.68 67.976H330.216ZM333.418 68.584C333.418 67.688 333.599 66.904 333.962 66.232C334.325 65.5493 334.821 65.0213 335.45 64.648C336.09 64.2747 336.805 64.088 337.594 64.088C338.351 64.088 339.013 64.2587 339.578 64.6C340.154 64.9307 340.575 65.3413 340.842 65.832V64.232H342.314V77.16H340.842V71.384C340.565 71.8747 340.138 72.2907 339.562 72.632C338.986 72.9733 338.314 73.144 337.546 73.144C336.778 73.144 336.079 72.952 335.45 72.568C334.821 72.184 334.325 71.6453 333.962 70.952C333.599 70.2587 333.418 69.4693 333.418 68.584ZM340.842 68.6C340.842 67.9387 340.709 67.3627 340.442 66.872C340.175 66.3813 339.813 66.008 339.354 65.752C338.906 65.4853 338.41 65.352 337.866 65.352C337.322 65.352 336.826 65.48 336.378 65.736C335.93 65.992 335.573 66.3653 335.306 66.856C335.039 67.3467 334.906 67.9227 334.906 68.584C334.906 69.256 335.039 69.8427 335.306 70.344C335.573 70.8347 335.93 71.2133 336.378 71.48C336.826 71.736 337.322 71.864 337.866 71.864C338.41 71.864 338.906 71.736 339.354 71.48C339.813 71.2133 340.175 70.8347 340.442 70.344C340.709 69.8427 340.842 69.2613 340.842 68.6ZM352.87 64.232V73H351.414V71.704C351.137 72.152 350.748 72.504 350.246 72.76C349.756 73.0053 349.212 73.128 348.614 73.128C347.932 73.128 347.318 72.9893 346.774 72.712C346.23 72.424 345.798 71.9973 345.478 71.432C345.169 70.8667 345.014 70.1787 345.014 69.368V64.232H346.454V69.176C346.454 70.04 346.673 70.7067 347.11 71.176C347.548 71.6347 348.145 71.864 348.902 71.864C349.681 71.864 350.294 71.624 350.742 71.144C351.19 70.664 351.414 69.9653 351.414 69.048V64.232H352.87ZM363.649 68.28C363.649 68.5573 363.633 68.8507 363.601 69.16H356.593C356.646 70.024 356.94 70.7013 357.473 71.192C358.017 71.672 358.673 71.912 359.441 71.912C360.07 71.912 360.593 71.768 361.009 71.48C361.436 71.1813 361.734 70.7867 361.905 70.296H363.473C363.238 71.1387 362.769 71.8267 362.065 72.36C361.361 72.8827 360.486 73.144 359.441 73.144C358.609 73.144 357.862 72.9573 357.201 72.584C356.55 72.2107 356.038 71.6827 355.665 71C355.292 70.3067 355.105 69.5067 355.105 68.6C355.105 67.6933 355.286 66.8987 355.649 66.216C356.012 65.5333 356.518 65.0107 357.169 64.648C357.83 64.2747 358.588 64.088 359.441 64.088C360.273 64.088 361.009 64.2693 361.649 64.632C362.289 64.9947 362.78 65.496 363.121 66.136C363.473 66.7653 363.649 67.48 363.649 68.28ZM362.145 67.976C362.145 67.4213 362.022 66.9467 361.777 66.552C361.532 66.1467 361.196 65.8427 360.769 65.64C360.353 65.4267 359.889 65.32 359.377 65.32C358.641 65.32 358.012 65.5547 357.489 66.024C356.977 66.4933 356.684 67.144 356.609 67.976H362.145ZM368.995 73.144C368.323 73.144 367.72 73.032 367.187 72.808C366.653 72.5733 366.232 72.2533 365.923 71.848C365.613 71.432 365.443 70.9573 365.411 70.424H366.915C366.957 70.8613 367.16 71.2187 367.523 71.496C367.896 71.7733 368.381 71.912 368.979 71.912C369.533 71.912 369.971 71.7893 370.291 71.544C370.611 71.2987 370.771 70.9893 370.771 70.616C370.771 70.232 370.6 69.9493 370.259 69.768C369.917 69.576 369.389 69.3893 368.675 69.208C368.024 69.0373 367.491 68.8667 367.075 68.696C366.669 68.5147 366.317 68.2533 366.019 67.912C365.731 67.56 365.587 67.1013 365.587 66.536C365.587 66.088 365.72 65.6773 365.987 65.304C366.253 64.9307 366.632 64.6373 367.123 64.424C367.613 64.2 368.173 64.088 368.803 64.088C369.773 64.088 370.557 64.3333 371.155 64.824C371.752 65.3147 372.072 65.9867 372.115 66.84H370.659C370.627 66.3813 370.44 66.0133 370.099 65.736C369.768 65.4587 369.32 65.32 368.755 65.32C368.232 65.32 367.816 65.432 367.507 65.656C367.197 65.88 367.043 66.1733 367.043 66.536C367.043 66.824 367.133 67.064 367.315 67.256C367.507 67.4373 367.741 67.5867 368.019 67.704C368.307 67.8107 368.701 67.9333 369.203 68.072C369.832 68.2427 370.344 68.4133 370.739 68.584C371.133 68.744 371.469 68.9893 371.747 69.32C372.035 69.6507 372.184 70.0827 372.195 70.616C372.195 71.096 372.061 71.528 371.795 71.912C371.528 72.296 371.149 72.6 370.659 72.824C370.179 73.0373 369.624 73.144 368.995 73.144ZM376.346 65.432V70.6C376.346 71.0267 376.437 71.3307 376.618 71.512C376.799 71.6827 377.114 71.768 377.562 71.768H378.634V73H377.322C376.511 73 375.903 72.8133 375.498 72.44C375.093 72.0667 374.89 71.4533 374.89 70.6V65.432H373.754V64.232H374.89V62.024H376.346V64.232H378.634V65.432H376.346ZM14 94.12H30V78.12H14V94.12ZM35.5936 87.416C35.5936 86.328 35.839 85.352 36.3296 84.488C36.8203 83.6133 37.487 82.9307 38.3296 82.44C39.183 81.9493 40.127 81.704 41.1616 81.704C42.3776 81.704 43.439 81.9973 44.3456 82.584C45.2523 83.1707 45.9136 84.0027 46.3296 85.08H44.5856C44.2763 84.408 43.8283 83.8907 43.2416 83.528C42.6656 83.1653 41.9723 82.984 41.1616 82.984C40.383 82.984 39.6843 83.1653 39.0656 83.528C38.447 83.8907 37.9616 84.408 37.6096 85.08C37.2576 85.7413 37.0816 86.52 37.0816 87.416C37.0816 88.3013 37.2576 89.08 37.6096 89.752C37.9616 90.4133 38.447 90.9253 39.0656 91.288C39.6843 91.6507 40.383 91.832 41.1616 91.832C41.9723 91.832 42.6656 91.656 43.2416 91.304C43.8283 90.9413 44.2763 90.424 44.5856 89.752H46.3296C45.9136 90.8187 45.2523 91.6453 44.3456 92.232C43.439 92.808 42.3776 93.096 41.1616 93.096C40.127 93.096 39.183 92.856 38.3296 92.376C37.487 91.8853 36.8203 91.208 36.3296 90.344C35.839 89.48 35.5936 88.504 35.5936 87.416ZM52.641 93.144C51.8197 93.144 51.073 92.9573 50.401 92.584C49.7397 92.2107 49.217 91.6827 48.833 91C48.4597 90.3067 48.273 89.5067 48.273 88.6C48.273 87.704 48.465 86.9147 48.849 86.232C49.2437 85.5387 49.777 85.0107 50.449 84.648C51.121 84.2747 51.873 84.088 52.705 84.088C53.537 84.088 54.289 84.2747 54.961 84.648C55.633 85.0107 56.161 85.5333 56.545 86.216C56.9397 86.8987 57.137 87.6933 57.137 88.6C57.137 89.5067 56.9343 90.3067 56.529 91C56.1343 91.6827 55.5957 92.2107 54.913 92.584C54.2303 92.9573 53.473 93.144 52.641 93.144ZM52.641 91.864C53.1637 91.864 53.6543 91.7413 54.113 91.496C54.5717 91.2507 54.9397 90.8827 55.217 90.392C55.505 89.9013 55.649 89.304 55.649 88.6C55.649 87.896 55.5103 87.2987 55.233 86.808C54.9557 86.3173 54.593 85.9547 54.145 85.72C53.697 85.4747 53.2117 85.352 52.689 85.352C52.1557 85.352 51.665 85.4747 51.217 85.72C50.7797 85.9547 50.4277 86.3173 50.161 86.808C49.8943 87.2987 49.761 87.896 49.761 88.6C49.761 89.3147 49.889 89.9173 50.145 90.408C50.4117 90.8987 50.7637 91.2667 51.201 91.512C51.6383 91.7467 52.1183 91.864 52.641 91.864ZM63.6434 84.072C64.71 84.072 65.574 84.3973 66.2354 85.048C66.8967 85.688 67.2274 86.616 67.2274 87.832V93H65.7874V88.04C65.7874 87.1653 65.5687 86.4987 65.1314 86.04C64.694 85.5707 64.0967 85.336 63.3394 85.336C62.5714 85.336 61.958 85.576 61.4994 86.056C61.0514 86.536 60.8274 87.2347 60.8274 88.152V93H59.3714V84.232H60.8274V85.48C61.1154 85.032 61.5047 84.6853 61.9954 84.44C62.4967 84.1947 63.046 84.072 63.6434 84.072ZM73.4937 85.432H71.6537V93H70.1977V85.432H69.0617V84.232H70.1977V83.608C70.1977 82.6267 70.4484 81.912 70.9497 81.464C71.4617 81.0053 72.2777 80.776 73.3977 80.776V81.992C72.7577 81.992 72.3044 82.12 72.0377 82.376C71.7817 82.6213 71.6537 83.032 71.6537 83.608V84.232H73.4937V85.432ZM76.2634 82.808C75.986 82.808 75.7514 82.712 75.5594 82.52C75.3674 82.328 75.2714 82.0933 75.2714 81.816C75.2714 81.5387 75.3674 81.304 75.5594 81.112C75.7514 80.92 75.986 80.824 76.2634 80.824C76.53 80.824 76.754 80.92 76.9354 81.112C77.1274 81.304 77.2234 81.5387 77.2234 81.816C77.2234 82.0933 77.1274 82.328 76.9354 82.52C76.754 82.712 76.53 82.808 76.2634 82.808ZM76.9674 84.232V93H75.5114V84.232H76.9674ZM81.2249 85.656C81.4809 85.1547 81.8435 84.7653 82.3129 84.488C82.7929 84.2107 83.3742 84.072 84.0569 84.072V85.576H83.6729C82.0409 85.576 81.2249 86.4613 81.2249 88.232V93H79.7689V84.232H81.2249V85.656ZM96.6016 84.072C97.2843 84.072 97.8923 84.216 98.4256 84.504C98.959 84.7813 99.3803 85.2027 99.6896 85.768C99.999 86.3333 100.154 87.0213 100.154 87.832V93H98.7136V88.04C98.7136 87.1653 98.495 86.4987 98.0576 86.04C97.631 85.5707 97.0496 85.336 96.3136 85.336C95.5563 85.336 94.9536 85.5813 94.5056 86.072C94.0576 86.552 93.8336 87.2507 93.8336 88.168V93H92.3936V88.04C92.3936 87.1653 92.175 86.4987 91.7376 86.04C91.311 85.5707 90.7296 85.336 89.9936 85.336C89.2363 85.336 88.6336 85.5813 88.1856 86.072C87.7376 86.552 87.5136 87.2507 87.5136 88.168V93H86.0576V84.232H87.5136V85.496C87.8016 85.0373 88.1856 84.6853 88.6656 84.44C89.1563 84.1947 89.695 84.072 90.2816 84.072C91.0176 84.072 91.6683 84.2373 92.2336 84.568C92.799 84.8987 93.2203 85.384 93.4976 86.024C93.743 85.4053 94.1483 84.9253 94.7136 84.584C95.279 84.2427 95.9083 84.072 96.6016 84.072ZM102.318 88.584C102.318 87.688 102.499 86.904 102.862 86.232C103.225 85.5493 103.721 85.0213 104.35 84.648C104.99 84.2747 105.699 84.088 106.478 84.088C107.246 84.088 107.913 84.2533 108.478 84.584C109.043 84.9147 109.465 85.3307 109.742 85.832V84.232H111.214V93H109.742V91.368C109.454 91.88 109.022 92.3067 108.446 92.648C107.881 92.9787 107.219 93.144 106.462 93.144C105.683 93.144 104.979 92.952 104.35 92.568C103.721 92.184 103.225 91.6453 102.862 90.952C102.499 90.2587 102.318 89.4693 102.318 88.584ZM109.742 88.6C109.742 87.9387 109.609 87.3627 109.342 86.872C109.075 86.3813 108.713 86.008 108.254 85.752C107.806 85.4853 107.31 85.352 106.766 85.352C106.222 85.352 105.726 85.48 105.278 85.736C104.83 85.992 104.473 86.3653 104.206 86.856C103.939 87.3467 103.806 87.9227 103.806 88.584C103.806 89.256 103.939 89.8427 104.206 90.344C104.473 90.8347 104.83 91.2133 105.278 91.48C105.726 91.736 106.222 91.864 106.766 91.864C107.31 91.864 107.806 91.736 108.254 91.48C108.713 91.2133 109.075 90.8347 109.342 90.344C109.609 89.8427 109.742 89.2613 109.742 88.6ZM115.77 85.432V90.6C115.77 91.0267 115.861 91.3307 116.042 91.512C116.224 91.6827 116.538 91.768 116.986 91.768H118.058V93H116.746C115.936 93 115.328 92.8133 114.922 92.44C114.517 92.0667 114.314 91.4533 114.314 90.6V85.432H113.178V84.232H114.314V82.024H115.77V84.232H118.058V85.432H115.77ZM120.895 82.808C120.617 82.808 120.383 82.712 120.191 82.52C119.999 82.328 119.903 82.0933 119.903 81.816C119.903 81.5387 119.999 81.304 120.191 81.112C120.383 80.92 120.617 80.824 120.895 80.824C121.161 80.824 121.385 80.92 121.567 81.112C121.759 81.304 121.855 81.5387 121.855 81.816C121.855 82.0933 121.759 82.328 121.567 82.52C121.385 82.712 121.161 82.808 120.895 82.808ZM121.599 84.232V93H120.143V84.232H121.599ZM128.224 93.144C127.403 93.144 126.656 92.9573 125.984 92.584C125.323 92.2107 124.8 91.6827 124.416 91C124.043 90.3067 123.856 89.5067 123.856 88.6C123.856 87.704 124.048 86.9147 124.432 86.232C124.827 85.5387 125.36 85.0107 126.032 84.648C126.704 84.2747 127.456 84.088 128.288 84.088C129.12 84.088 129.872 84.2747 130.544 84.648C131.216 85.0107 131.744 85.5333 132.128 86.216C132.523 86.8987 132.72 87.6933 132.72 88.6C132.72 89.5067 132.517 90.3067 132.112 91C131.717 91.6827 131.179 92.2107 130.496 92.584C129.813 92.9573 129.056 93.144 128.224 93.144ZM128.224 91.864C128.747 91.864 129.237 91.7413 129.696 91.496C130.155 91.2507 130.523 90.8827 130.8 90.392C131.088 89.9013 131.232 89.304 131.232 88.6C131.232 87.896 131.093 87.2987 130.816 86.808C130.539 86.3173 130.176 85.9547 129.728 85.72C129.28 85.4747 128.795 85.352 128.272 85.352C127.739 85.352 127.248 85.4747 126.8 85.72C126.363 85.9547 126.011 86.3173 125.744 86.808C125.477 87.2987 125.344 87.896 125.344 88.6C125.344 89.3147 125.472 89.9173 125.728 90.408C125.995 90.8987 126.347 91.2667 126.784 91.512C127.221 91.7467 127.701 91.864 128.224 91.864ZM139.227 84.072C140.293 84.072 141.157 84.3973 141.819 85.048C142.48 85.688 142.811 86.616 142.811 87.832V93H141.371V88.04C141.371 87.1653 141.152 86.4987 140.715 86.04C140.277 85.5707 139.68 85.336 138.923 85.336C138.155 85.336 137.541 85.576 137.083 86.056C136.635 86.536 136.411 87.2347 136.411 88.152V93H134.955V84.232H136.411V85.48C136.699 85.032 137.088 84.6853 137.579 84.44C138.08 84.1947 138.629 84.072 139.227 84.072ZM151.871 85.432V90.6C151.871 91.0267 151.961 91.3307 152.143 91.512C152.324 91.6827 152.639 91.768 153.087 91.768H154.159V93H152.847C152.036 93 151.428 92.8133 151.023 92.44C150.617 92.0667 150.415 91.4533 150.415 90.6V85.432H149.279V84.232H150.415V82.024H151.871V84.232H154.159V85.432H151.871ZM160.595 84.072C161.256 84.072 161.853 84.216 162.387 84.504C162.92 84.7813 163.336 85.2027 163.635 85.768C163.944 86.3333 164.099 87.0213 164.099 87.832V93H162.659V88.04C162.659 87.1653 162.44 86.4987 162.003 86.04C161.565 85.5707 160.968 85.336 160.211 85.336C159.443 85.336 158.829 85.576 158.371 86.056C157.923 86.536 157.699 87.2347 157.699 88.152V93H156.243V81.16H157.699V85.48C157.987 85.032 158.381 84.6853 158.883 84.44C159.395 84.1947 159.965 84.072 160.595 84.072ZM166.253 88.584C166.253 87.688 166.434 86.904 166.797 86.232C167.16 85.5493 167.656 85.0213 168.285 84.648C168.925 84.2747 169.634 84.088 170.413 84.088C171.181 84.088 171.848 84.2533 172.413 84.584C172.978 84.9147 173.4 85.3307 173.677 85.832V84.232H175.149V93H173.677V91.368C173.389 91.88 172.957 92.3067 172.381 92.648C171.816 92.9787 171.154 93.144 170.397 93.144C169.618 93.144 168.914 92.952 168.285 92.568C167.656 92.184 167.16 91.6453 166.797 90.952C166.434 90.2587 166.253 89.4693 166.253 88.584ZM173.677 88.6C173.677 87.9387 173.544 87.3627 173.277 86.872C173.01 86.3813 172.648 86.008 172.189 85.752C171.741 85.4853 171.245 85.352 170.701 85.352C170.157 85.352 169.661 85.48 169.213 85.736C168.765 85.992 168.408 86.3653 168.141 86.856C167.874 87.3467 167.741 87.9227 167.741 88.584C167.741 89.256 167.874 89.8427 168.141 90.344C168.408 90.8347 168.765 91.2133 169.213 91.48C169.661 91.736 170.157 91.864 170.701 91.864C171.245 91.864 171.741 91.736 172.189 91.48C172.648 91.2133 173.01 90.8347 173.277 90.344C173.544 89.8427 173.677 89.2613 173.677 88.6ZM179.705 85.432V90.6C179.705 91.0267 179.796 91.3307 179.977 91.512C180.159 91.6827 180.473 91.768 180.921 91.768H181.993V93H180.681C179.871 93 179.263 92.8133 178.857 92.44C178.452 92.0667 178.249 91.4533 178.249 90.6V85.432H177.113V84.232H178.249V82.024H179.705V84.232H181.993V85.432H179.705ZM196.215 84.232L190.935 97.128H189.431L191.159 92.904L187.623 84.232H189.239L191.991 91.336L194.711 84.232H196.215ZM201.823 93.144C201.002 93.144 200.255 92.9573 199.583 92.584C198.922 92.2107 198.399 91.6827 198.015 91C197.642 90.3067 197.455 89.5067 197.455 88.6C197.455 87.704 197.647 86.9147 198.031 86.232C198.426 85.5387 198.959 85.0107 199.631 84.648C200.303 84.2747 201.055 84.088 201.887 84.088C202.719 84.088 203.471 84.2747 204.143 84.648C204.815 85.0107 205.343 85.5333 205.727 86.216C206.122 86.8987 206.319 87.6933 206.319 88.6C206.319 89.5067 206.116 90.3067 205.711 91C205.316 91.6827 204.778 92.2107 204.095 92.584C203.412 92.9573 202.655 93.144 201.823 93.144ZM201.823 91.864C202.346 91.864 202.836 91.7413 203.295 91.496C203.754 91.2507 204.122 90.8827 204.399 90.392C204.687 89.9013 204.831 89.304 204.831 88.6C204.831 87.896 204.692 87.2987 204.415 86.808C204.138 86.3173 203.775 85.9547 203.327 85.72C202.879 85.4747 202.394 85.352 201.871 85.352C201.338 85.352 200.847 85.4747 200.399 85.72C199.962 85.9547 199.61 86.3173 199.343 86.808C199.076 87.2987 198.943 87.896 198.943 88.6C198.943 89.3147 199.071 89.9173 199.327 90.408C199.594 90.8987 199.946 91.2667 200.383 91.512C200.82 91.7467 201.3 91.864 201.823 91.864ZM216.329 84.232V93H214.873V91.704C214.596 92.152 214.207 92.504 213.705 92.76C213.215 93.0053 212.671 93.128 212.073 93.128C211.391 93.128 210.777 92.9893 210.233 92.712C209.689 92.424 209.257 91.9973 208.937 91.432C208.628 90.8667 208.473 90.1787 208.473 89.368V84.232H209.913V89.176C209.913 90.04 210.132 90.7067 210.569 91.176C211.007 91.6347 211.604 91.864 212.361 91.864C213.14 91.864 213.753 91.624 214.201 91.144C214.649 90.664 214.873 89.9653 214.873 89.048V84.232H216.329ZM234.237 84.072C234.92 84.072 235.528 84.216 236.061 84.504C236.595 84.7813 237.016 85.2027 237.325 85.768C237.635 86.3333 237.789 87.0213 237.789 87.832V93H236.349V88.04C236.349 87.1653 236.131 86.4987 235.693 86.04C235.267 85.5707 234.685 85.336 233.949 85.336C233.192 85.336 232.589 85.5813 232.141 86.072C231.693 86.552 231.469 87.2507 231.469 88.168V93H230.029V88.04C230.029 87.1653 229.811 86.4987 229.373 86.04C228.947 85.5707 228.365 85.336 227.629 85.336C226.872 85.336 226.269 85.5813 225.821 86.072C225.373 86.552 225.149 87.2507 225.149 88.168V93H223.693V84.232H225.149V85.496C225.437 85.0373 225.821 84.6853 226.301 84.44C226.792 84.1947 227.331 84.072 227.917 84.072C228.653 84.072 229.304 84.2373 229.869 84.568C230.435 84.8987 230.856 85.384 231.133 86.024C231.379 85.4053 231.784 84.9253 232.349 84.584C232.915 84.2427 233.544 84.072 234.237 84.072ZM248.498 88.28C248.498 88.5573 248.482 88.8507 248.45 89.16H241.442C241.495 90.024 241.788 90.7013 242.322 91.192C242.866 91.672 243.522 91.912 244.29 91.912C244.919 91.912 245.442 91.768 245.858 91.48C246.284 91.1813 246.583 90.7867 246.754 90.296H248.322C248.087 91.1387 247.618 91.8267 246.914 92.36C246.21 92.8827 245.335 93.144 244.29 93.144C243.458 93.144 242.711 92.9573 242.05 92.584C241.399 92.2107 240.887 91.6827 240.514 91C240.14 90.3067 239.954 89.5067 239.954 88.6C239.954 87.6933 240.135 86.8987 240.498 86.216C240.86 85.5333 241.367 85.0107 242.018 84.648C242.679 84.2747 243.436 84.088 244.29 84.088C245.122 84.088 245.858 84.2693 246.498 84.632C247.138 84.9947 247.628 85.496 247.97 86.136C248.322 86.7653 248.498 87.48 248.498 88.28ZM246.994 87.976C246.994 87.4213 246.871 86.9467 246.626 86.552C246.38 86.1467 246.044 85.8427 245.618 85.64C245.202 85.4267 244.738 85.32 244.226 85.32C243.49 85.32 242.86 85.5547 242.338 86.024C241.826 86.4933 241.532 87.144 241.458 87.976H246.994ZM258.74 88.28C258.74 88.5573 258.724 88.8507 258.692 89.16H251.684C251.737 90.024 252.03 90.7013 252.564 91.192C253.108 91.672 253.764 91.912 254.532 91.912C255.161 91.912 255.684 91.768 256.1 91.48C256.526 91.1813 256.825 90.7867 256.996 90.296H258.564C258.329 91.1387 257.86 91.8267 257.156 92.36C256.452 92.8827 255.577 93.144 254.532 93.144C253.7 93.144 252.953 92.9573 252.292 92.584C251.641 92.2107 251.129 91.6827 250.756 91C250.382 90.3067 250.196 89.5067 250.196 88.6C250.196 87.6933 250.377 86.8987 250.74 86.216C251.102 85.5333 251.609 85.0107 252.26 84.648C252.921 84.2747 253.678 84.088 254.532 84.088C255.364 84.088 256.1 84.2693 256.74 84.632C257.38 84.9947 257.87 85.496 258.212 86.136C258.564 86.7653 258.74 87.48 258.74 88.28ZM257.236 87.976C257.236 87.4213 257.113 86.9467 256.868 86.552C256.622 86.1467 256.286 85.8427 255.86 85.64C255.444 85.4267 254.98 85.32 254.468 85.32C253.732 85.32 253.102 85.5547 252.58 86.024C252.068 86.4933 251.774 87.144 251.7 87.976H257.236ZM262.757 85.432V90.6C262.757 91.0267 262.848 91.3307 263.029 91.512C263.211 91.6827 263.525 91.768 263.973 91.768H265.045V93H263.733C262.923 93 262.315 92.8133 261.909 92.44C261.504 92.0667 261.301 91.4533 261.301 90.6V85.432H260.165V84.232H261.301V82.024H262.757V84.232H265.045V85.432H262.757ZM273.491 85.432V90.6C273.491 91.0267 273.582 91.3307 273.763 91.512C273.944 91.6827 274.259 91.768 274.707 91.768H275.779V93H274.467C273.656 93 273.048 92.8133 272.643 92.44C272.238 92.0667 272.035 91.4533 272.035 90.6V85.432H270.899V84.232H272.035V82.024H273.491V84.232H275.779V85.432H273.491ZM282.215 84.072C282.877 84.072 283.474 84.216 284.007 84.504C284.541 84.7813 284.957 85.2027 285.255 85.768C285.565 86.3333 285.719 87.0213 285.719 87.832V93H284.279V88.04C284.279 87.1653 284.061 86.4987 283.623 86.04C283.186 85.5707 282.589 85.336 281.831 85.336C281.063 85.336 280.45 85.576 279.991 86.056C279.543 86.536 279.319 87.2347 279.319 88.152V93H277.863V81.16H279.319V85.48C279.607 85.032 280.002 84.6853 280.503 84.44C281.015 84.1947 281.586 84.072 282.215 84.072ZM296.418 88.28C296.418 88.5573 296.402 88.8507 296.37 89.16H289.362C289.415 90.024 289.708 90.7013 290.242 91.192C290.786 91.672 291.442 91.912 292.21 91.912C292.839 91.912 293.362 91.768 293.778 91.48C294.204 91.1813 294.503 90.7867 294.674 90.296H296.242C296.007 91.1387 295.538 91.8267 294.834 92.36C294.13 92.8827 293.255 93.144 292.21 93.144C291.378 93.144 290.631 92.9573 289.97 92.584C289.319 92.2107 288.807 91.6827 288.434 91C288.06 90.3067 287.874 89.5067 287.874 88.6C287.874 87.6933 288.055 86.8987 288.418 86.216C288.78 85.5333 289.287 85.0107 289.938 84.648C290.599 84.2747 291.356 84.088 292.21 84.088C293.042 84.088 293.778 84.2693 294.418 84.632C295.058 84.9947 295.548 85.496 295.89 86.136C296.242 86.7653 296.418 87.48 296.418 88.28ZM294.914 87.976C294.914 87.4213 294.791 86.9467 294.546 86.552C294.3 86.1467 293.964 85.8427 293.538 85.64C293.122 85.4267 292.658 85.32 292.146 85.32C291.41 85.32 290.78 85.5547 290.258 86.024C289.746 86.4933 289.452 87.144 289.378 87.976H294.914ZM311.245 88.28C311.245 88.5573 311.229 88.8507 311.197 89.16H304.189C304.242 90.024 304.536 90.7013 305.069 91.192C305.613 91.672 306.269 91.912 307.037 91.912C307.666 91.912 308.189 91.768 308.605 91.48C309.032 91.1813 309.33 90.7867 309.501 90.296H311.069C310.834 91.1387 310.365 91.8267 309.661 92.36C308.957 92.8827 308.082 93.144 307.037 93.144C306.205 93.144 305.458 92.9573 304.797 92.584C304.146 92.2107 303.634 91.6827 303.261 91C302.888 90.3067 302.701 89.5067 302.701 88.6C302.701 87.6933 302.882 86.8987 303.245 86.216C303.608 85.5333 304.114 85.0107 304.765 84.648C305.426 84.2747 306.184 84.088 307.037 84.088C307.869 84.088 308.605 84.2693 309.245 84.632C309.885 84.9947 310.376 85.496 310.717 86.136C311.069 86.7653 311.245 87.48 311.245 88.28ZM309.741 87.976C309.741 87.4213 309.618 86.9467 309.373 86.552C309.128 86.1467 308.792 85.8427 308.365 85.64C307.949 85.4267 307.485 85.32 306.973 85.32C306.237 85.32 305.608 85.5547 305.085 86.024C304.573 86.4933 304.28 87.144 304.205 87.976H309.741ZM314.943 81.16V93H313.487V81.16H314.943ZM318.497 82.808C318.219 82.808 317.985 82.712 317.793 82.52C317.601 82.328 317.505 82.0933 317.505 81.816C317.505 81.5387 317.601 81.304 317.793 81.112C317.985 80.92 318.219 80.824 318.497 80.824C318.763 80.824 318.987 80.92 319.169 81.112C319.361 81.304 319.457 81.5387 319.457 81.816C319.457 82.0933 319.361 82.328 319.169 82.52C318.987 82.712 318.763 82.808 318.497 82.808ZM319.201 84.232V93H317.745V84.232H319.201ZM325.618 84.088C326.375 84.088 327.037 84.2533 327.602 84.584C328.178 84.9147 328.605 85.3307 328.882 85.832V84.232H330.354V93.192C330.354 93.992 330.183 94.7013 329.842 95.32C329.501 95.9493 329.01 96.44 328.37 96.792C327.741 97.144 327.005 97.32 326.162 97.32C325.01 97.32 324.05 97.048 323.282 96.504C322.514 95.96 322.061 95.2187 321.922 94.28H323.362C323.522 94.8133 323.853 95.24 324.354 95.56C324.855 95.8907 325.458 96.056 326.162 96.056C326.962 96.056 327.613 95.8053 328.114 95.304C328.626 94.8027 328.882 94.0987 328.882 93.192V91.352C328.594 91.864 328.167 92.2907 327.602 92.632C327.037 92.9733 326.375 93.144 325.618 93.144C324.839 93.144 324.13 92.952 323.49 92.568C322.861 92.184 322.365 91.6453 322.002 90.952C321.639 90.2587 321.458 89.4693 321.458 88.584C321.458 87.688 321.639 86.904 322.002 86.232C322.365 85.5493 322.861 85.0213 323.49 84.648C324.13 84.2747 324.839 84.088 325.618 84.088ZM328.882 88.6C328.882 87.9387 328.749 87.3627 328.482 86.872C328.215 86.3813 327.853 86.008 327.394 85.752C326.946 85.4853 326.45 85.352 325.906 85.352C325.362 85.352 324.866 85.48 324.418 85.736C323.97 85.992 323.613 86.3653 323.346 86.856C323.079 87.3467 322.946 87.9227 322.946 88.584C322.946 89.256 323.079 89.8427 323.346 90.344C323.613 90.8347 323.97 91.2133 324.418 91.48C324.866 91.736 325.362 91.864 325.906 91.864C326.45 91.864 326.946 91.736 327.394 91.48C327.853 91.2133 328.215 90.8347 328.482 90.344C328.749 89.8427 328.882 89.2613 328.882 88.6ZM333.886 82.808C333.609 82.808 333.374 82.712 333.182 82.52C332.99 82.328 332.894 82.0933 332.894 81.816C332.894 81.5387 332.99 81.304 333.182 81.112C333.374 80.92 333.609 80.824 333.886 80.824C334.153 80.824 334.377 80.92 334.558 81.112C334.75 81.304 334.846 81.5387 334.846 81.816C334.846 82.0933 334.75 82.328 334.558 82.52C334.377 82.712 334.153 82.808 333.886 82.808ZM334.59 84.232V93H333.134V84.232H334.59ZM338.848 85.864C339.147 85.3413 339.584 84.9147 340.16 84.584C340.736 84.2533 341.392 84.088 342.128 84.088C342.917 84.088 343.627 84.2747 344.256 84.648C344.885 85.0213 345.381 85.5493 345.744 86.232C346.107 86.904 346.288 87.688 346.288 88.584C346.288 89.4693 346.107 90.2587 345.744 90.952C345.381 91.6453 344.88 92.184 344.24 92.568C343.611 92.952 342.907 93.144 342.128 93.144C341.371 93.144 340.704 92.9787 340.128 92.648C339.563 92.3173 339.136 91.896 338.848 91.384V93H337.392V81.16H338.848V85.864ZM344.8 88.584C344.8 87.9227 344.667 87.3467 344.4 86.856C344.133 86.3653 343.771 85.992 343.312 85.736C342.864 85.48 342.368 85.352 341.824 85.352C341.291 85.352 340.795 85.4853 340.336 85.752C339.888 86.008 339.525 86.3867 339.248 86.888C338.981 87.3787 338.848 87.9493 338.848 88.6C338.848 89.2613 338.981 89.8427 339.248 90.344C339.525 90.8347 339.888 91.2133 340.336 91.48C340.795 91.736 341.291 91.864 341.824 91.864C342.368 91.864 342.864 91.736 343.312 91.48C343.771 91.2133 344.133 90.8347 344.4 90.344C344.667 89.8427 344.8 89.256 344.8 88.584ZM349.277 82.808C348.999 82.808 348.765 82.712 348.573 82.52C348.381 82.328 348.285 82.0933 348.285 81.816C348.285 81.5387 348.381 81.304 348.573 81.112C348.765 80.92 348.999 80.824 349.277 80.824C349.543 80.824 349.767 80.92 349.949 81.112C350.141 81.304 350.237 81.5387 350.237 81.816C350.237 82.0933 350.141 82.328 349.949 82.52C349.767 82.712 349.543 82.808 349.277 82.808ZM349.981 84.232V93H348.525V84.232H349.981ZM354.238 81.16V93H352.782V81.16H354.238ZM357.791 82.808C357.514 82.808 357.279 82.712 357.087 82.52C356.895 82.328 356.799 82.0933 356.799 81.816C356.799 81.5387 356.895 81.304 357.087 81.112C357.279 80.92 357.514 80.824 357.791 80.824C358.058 80.824 358.282 80.92 358.463 81.112C358.655 81.304 358.751 81.5387 358.751 81.816C358.751 82.0933 358.655 82.328 358.463 82.52C358.282 82.712 358.058 82.808 357.791 82.808ZM358.495 84.232V93H357.039V84.232H358.495ZM363.073 85.432V90.6C363.073 91.0267 363.164 91.3307 363.345 91.512C363.526 91.6827 363.841 91.768 364.289 91.768H365.361V93H364.049C363.238 93 362.63 92.8133 362.225 92.44C361.82 92.0667 361.617 91.4533 361.617 90.6V85.432H360.481V84.232H361.617V82.024H363.073V84.232H365.361V85.432H363.073ZM374.997 84.232L369.717 97.128H368.213L369.941 92.904L366.405 84.232H368.021L370.773 91.336L373.493 84.232H374.997ZM380.822 88.6C380.822 87.6933 381.004 86.904 381.366 86.232C381.729 85.5493 382.23 85.0213 382.87 84.648C383.521 84.2747 384.262 84.088 385.094 84.088C386.172 84.088 387.057 84.3493 387.75 84.872C388.454 85.3947 388.918 86.12 389.142 87.048H387.574C387.425 86.5147 387.132 86.0933 386.694 85.784C386.268 85.4747 385.734 85.32 385.094 85.32C384.262 85.32 383.59 85.608 383.078 86.184C382.566 86.7493 382.31 87.5547 382.31 88.6C382.31 89.656 382.566 90.472 383.078 91.048C383.59 91.624 384.262 91.912 385.094 91.912C385.734 91.912 386.268 91.7627 386.694 91.464C387.121 91.1653 387.414 90.7387 387.574 90.184H389.142C388.908 91.08 388.438 91.8 387.734 92.344C387.03 92.8773 386.15 93.144 385.094 93.144C384.262 93.144 383.521 92.9573 382.87 92.584C382.23 92.2107 381.729 91.6827 381.366 91C381.004 90.3173 380.822 89.5173 380.822 88.6ZM392.861 85.656C393.117 85.1547 393.48 84.7653 393.949 84.488C394.429 84.2107 395.01 84.072 395.693 84.072V85.576H395.309C393.677 85.576 392.861 86.4613 392.861 88.232V93H391.405V84.232H392.861V85.656ZM398.446 82.808C398.169 82.808 397.934 82.712 397.742 82.52C397.55 82.328 397.454 82.0933 397.454 81.816C397.454 81.5387 397.55 81.304 397.742 81.112C397.934 80.92 398.169 80.824 398.446 80.824C398.713 80.824 398.937 80.92 399.118 81.112C399.31 81.304 399.406 81.5387 399.406 81.816C399.406 82.0933 399.31 82.328 399.118 82.52C398.937 82.712 398.713 82.808 398.446 82.808ZM399.15 84.232V93H397.694V84.232H399.15ZM403.727 85.432V90.6C403.727 91.0267 403.818 91.3307 403.999 91.512C404.181 91.6827 404.495 91.768 404.943 91.768H406.015V93H404.703C403.893 93 403.285 92.8133 402.879 92.44C402.474 92.0667 402.271 91.4533 402.271 90.6V85.432H401.135V84.232H402.271V82.024H403.727V84.232H406.015V85.432H403.727ZM416.099 88.28C416.099 88.5573 416.083 88.8507 416.051 89.16H409.043C409.097 90.024 409.39 90.7013 409.923 91.192C410.467 91.672 411.123 91.912 411.891 91.912C412.521 91.912 413.043 91.768 413.459 91.48C413.886 91.1813 414.185 90.7867 414.355 90.296H415.923C415.689 91.1387 415.219 91.8267 414.515 92.36C413.811 92.8827 412.937 93.144 411.891 93.144C411.059 93.144 410.313 92.9573 409.651 92.584C409.001 92.2107 408.489 91.6827 408.115 91C407.742 90.3067 407.555 89.5067 407.555 88.6C407.555 87.6933 407.737 86.8987 408.099 86.216C408.462 85.5333 408.969 85.0107 409.619 84.648C410.281 84.2747 411.038 84.088 411.891 84.088C412.723 84.088 413.459 84.2693 414.099 84.632C414.739 84.9947 415.23 85.496 415.571 86.136C415.923 86.7653 416.099 87.48 416.099 88.28ZM414.595 87.976C414.595 87.4213 414.473 86.9467 414.227 86.552C413.982 86.1467 413.646 85.8427 413.219 85.64C412.803 85.4267 412.339 85.32 411.827 85.32C411.091 85.32 410.462 85.5547 409.939 86.024C409.427 86.4933 409.134 87.144 409.059 87.976H414.595ZM419.797 85.656C420.053 85.1547 420.416 84.7653 420.885 84.488C421.365 84.2107 421.947 84.072 422.629 84.072V85.576H422.245C420.613 85.576 419.797 86.4613 419.797 88.232V93H418.341V84.232H419.797V85.656ZM425.382 82.808C425.105 82.808 424.87 82.712 424.678 82.52C424.486 82.328 424.39 82.0933 424.39 81.816C424.39 81.5387 424.486 81.304 424.678 81.112C424.87 80.92 425.105 80.824 425.382 80.824C425.649 80.824 425.873 80.92 426.054 81.112C426.246 81.304 426.342 81.5387 426.342 81.816C426.342 82.0933 426.246 82.328 426.054 82.52C425.873 82.712 425.649 82.808 425.382 82.808ZM426.086 84.232V93H424.63V84.232H426.086ZM428.344 88.584C428.344 87.688 428.525 86.904 428.888 86.232C429.25 85.5493 429.746 85.0213 430.376 84.648C431.016 84.2747 431.725 84.088 432.504 84.088C433.272 84.088 433.938 84.2533 434.504 84.584C435.069 84.9147 435.49 85.3307 435.768 85.832V84.232H437.24V93H435.768V91.368C435.48 91.88 435.048 92.3067 434.472 92.648C433.906 92.9787 433.245 93.144 432.488 93.144C431.709 93.144 431.005 92.952 430.376 92.568C429.746 92.184 429.25 91.6453 428.888 90.952C428.525 90.2587 428.344 89.4693 428.344 88.584ZM435.768 88.6C435.768 87.9387 435.634 87.3627 435.368 86.872C435.101 86.3813 434.738 86.008 434.28 85.752C433.832 85.4853 433.336 85.352 432.792 85.352C432.248 85.352 431.752 85.48 431.304 85.736C430.856 85.992 430.498 86.3653 430.232 86.856C429.965 87.3467 429.832 87.9227 429.832 88.584C429.832 89.256 429.965 89.8427 430.232 90.344C430.498 90.8347 430.856 91.2133 431.304 91.48C431.752 91.736 432.248 91.864 432.792 91.864C433.336 91.864 433.832 91.736 434.28 91.48C434.738 91.2133 435.101 90.8347 435.368 90.344C435.634 89.8427 435.768 89.2613 435.768 88.6Z" fill="#374151"/>
</svg>
