<svg width="38" height="30" viewBox="0 0 38 30" fill="none" xmlns="http://www.w3.org/2000/svg">
<g clip-path="url(#clip0_62_2379)">
<g clip-path="url(#clip1_62_2379)">
<path d="M19 1.875C19.832 1.875 20.5996 2.31445 21.0215 3.03516L33.6777 24.5977C34.1054 25.3242 34.1054 26.2207 33.6894 26.9473C33.2734 27.6738 32.4941 28.125 31.6562 28.125H6.34372C5.50583 28.125 4.72654 27.6738 4.31052 26.9473C3.8945 26.2207 3.90036 25.3184 4.32224 24.5977L16.9785 3.03516C17.4004 2.31445 18.1679 1.875 19 1.875ZM19 9.375C18.2207 9.375 17.5937 10.002 17.5937 10.7812V17.3438C17.5937 18.123 18.2207 18.75 19 18.75C19.7793 18.75 20.4062 18.123 20.4062 17.3438V10.7812C20.4062 10.002 19.7793 9.375 19 9.375ZM20.875 22.5C20.875 22.0027 20.6774 21.5258 20.3258 21.1742C19.9742 20.8225 19.4973 20.625 19 20.625C18.5027 20.625 18.0258 20.8225 17.6741 21.1742C17.3225 21.5258 17.125 22.0027 17.125 22.5C17.125 22.9973 17.3225 23.4742 17.6741 23.8258C18.0258 24.1775 18.5027 24.375 19 24.375C19.4973 24.375 19.9742 24.1775 20.3258 23.8258C20.6774 23.4742 20.875 22.9973 20.875 22.5Z" fill="#F59E0B"/>
</g>
</g>
<defs>
<clipPath id="clip0_62_2379">
<rect width="30" height="30" fill="white" transform="translate(4)"/>
</clipPath>
<clipPath id="clip1_62_2379">
<path d="M4 0H34V30H4V0Z" fill="white"/>
</clipPath>
</defs>
</svg>
