<svg width="38" height="30" viewBox="0 0 38 30" fill="none" xmlns="http://www.w3.org/2000/svg">
<g clip-path="url(#clip0_62_2370)">
<g clip-path="url(#clip1_62_2370)">
<path d="M22.75 5.625V18.75H4V5.625H22.75ZM4 1.875C1.93164 1.875 0.25 3.55664 0.25 5.625V18.75C0.25 20.8184 1.93164 22.5 4 22.5H10.873L10.2461 24.375H5.875C4.83789 24.375 4 25.2129 4 26.25C4 27.2871 4.83789 28.125 5.875 28.125H20.875C21.9121 28.125 22.75 27.2871 22.75 26.25C22.75 25.2129 21.9121 24.375 20.875 24.375H16.498L15.8711 22.5H22.75C24.8184 22.5 26.5 20.8184 26.5 18.75V5.625C26.5 3.55664 24.8184 1.875 22.75 1.875H4ZM31.1875 1.875C29.6348 1.875 28.375 3.13477 28.375 4.6875V25.3125C28.375 26.8652 29.6348 28.125 31.1875 28.125H34.9375C36.4902 28.125 37.75 26.8652 37.75 25.3125V4.6875C37.75 3.13477 36.4902 1.875 34.9375 1.875H31.1875ZM32.125 5.625H34C34.5156 5.625 34.9375 6.04688 34.9375 6.5625C34.9375 7.07812 34.5156 7.5 34 7.5H32.125C31.6094 7.5 31.1875 7.07812 31.1875 6.5625C31.1875 6.04688 31.6094 5.625 32.125 5.625ZM31.1875 10.3125C31.1875 9.79688 31.6094 9.375 32.125 9.375H34C34.5156 9.375 34.9375 9.79688 34.9375 10.3125C34.9375 10.8281 34.5156 11.25 34 11.25H32.125C31.6094 11.25 31.1875 10.8281 31.1875 10.3125ZM33.0625 19.6875C33.5598 19.6875 34.0367 19.885 34.3883 20.2367C34.74 20.5883 34.9375 21.0652 34.9375 21.5625C34.9375 22.0598 34.74 22.5367 34.3883 22.8883C34.0367 23.24 33.5598 23.4375 33.0625 23.4375C32.5652 23.4375 32.0883 23.24 31.7367 22.8883C31.385 22.5367 31.1875 22.0598 31.1875 21.5625C31.1875 21.0652 31.385 20.5883 31.7367 20.2367C32.0883 19.885 32.5652 19.6875 33.0625 19.6875Z" fill="#3B82F6"/>
</g>
</g>
<defs>
<clipPath id="clip0_62_2370">
<rect width="37.5" height="30" fill="white" transform="translate(0.25)"/>
</clipPath>
<clipPath id="clip1_62_2370">
<path d="M0.25 0H37.75V30H0.25V0Z" fill="white"/>
</clipPath>
</defs>
</svg>
