<svg width="45" height="48" viewBox="0 0 45 48" fill="none" xmlns="http://www.w3.org/2000/svg">
<path d="M0 8C0 3.58172 3.58172 0 8 0H37C41.4183 0 45 3.58172 45 8V40C45 44.4183 41.4183 48 37 48H8C3.58172 48 0 44.4183 0 40V8Z" fill="#E0E7FF"/>
<path d="M0 8C0 3.58172 3.58172 0 8 0H37C41.4183 0 45 3.58172 45 8V40C45 44.4183 41.4183 48 37 48H8C3.58172 48 0 44.4183 0 40V8Z" stroke="#E5E7EB"/>
<path d="M12 8H33V41H12V8Z" stroke="#E5E7EB"/>
<g clip-path="url(#clip0_227_1393)">
<path d="M28.3781 14.0906C28.6547 13.4484 28.4484 12.6984 27.8812 12.2859C27.3141 11.8734 26.5406 11.9109 26.0109 12.3702L14.0109 22.8702C13.5422 23.2827 13.3734 23.9437 13.5937 24.5249C13.8141 25.1062 14.3766 25.4999 15 25.4999H20.2266L16.6219 33.9093C16.3453 34.5515 16.5516 35.3015 17.1187 35.714C17.6859 36.1265 18.4594 36.089 18.9891 35.6296L30.9891 25.1296C31.4578 24.7171 31.6266 24.0562 31.4062 23.4749C31.1859 22.8937 30.6281 22.5046 30 22.5046H24.7734L28.3781 14.0906Z" fill="#0059FF"/>
</g>
<defs>
<clipPath id="clip0_227_1393">
<path d="M12 12H33V36H12V12Z" fill="white"/>
</clipPath>
</defs>
</svg>
