<svg width="51" height="48" viewBox="0 0 51 48" fill="none" xmlns="http://www.w3.org/2000/svg">
<path d="M0 8C0 3.58172 3.58172 0 8 0H43C47.4183 0 51 3.58172 51 8V40C51 44.4183 47.4183 48 43 48H8C3.58172 48 0 44.4183 0 40V8Z" fill="#E0E7FF"/>
<path d="M0 8C0 3.58172 3.58172 0 8 0H43C47.4183 0 51 3.58172 51 8V40C51 44.4183 47.4183 48 43 48H8C3.58172 48 0 44.4183 0 40V8Z" stroke="#E5E7EB"/>
<path d="M12 8H39V41H12V8Z" stroke="#E5E7EB"/>
<path d="M12 12H39V36H12V12Z" stroke="#E5E7EB"/>
<path d="M23.0016 14.0016L21.2344 14.6625C21.0938 14.7141 21 14.85 21 15C21 15.15 21.0938 15.2859 21.2344 15.3375L23.0016 15.9984L23.6625 17.7656C23.7141 17.9062 23.85 18 24 18C24.15 18 24.2859 17.9062 24.3375 17.7656L24.9984 15.9984L26.7656 15.3375C26.9062 15.2859 27 15.15 27 15C27 14.85 26.9062 14.7141 26.7656 14.6625L24.9984 14.0016L24.3375 12.2344C24.2859 12.0937 24.15 12 24 12C23.85 12 23.7141 12.0937 23.6625 12.2344L23.0016 14.0016ZM14.1609 30.5344C13.2844 31.4109 13.2844 32.8359 14.1609 33.7172L15.7828 35.3391C16.6594 36.2156 18.0844 36.2156 18.9656 35.3391L36.8391 17.4609C37.7156 16.5844 37.7156 15.1594 36.8391 14.2781L35.2172 12.6609C34.3406 11.7844 32.9156 11.7844 32.0344 12.6609L14.1609 30.5344ZM34.7156 15.8719L29.7938 20.7937L28.7016 19.7016L33.6234 14.7797L34.7156 15.8719ZM12.3516 17.4937C12.1406 17.5734 12 17.775 12 18C12 18.225 12.1406 18.4266 12.3516 18.5062L15 19.5L15.9937 22.1484C16.0734 22.3594 16.275 22.5 16.5 22.5C16.725 22.5 16.9266 22.3594 17.0063 22.1484L18 19.5L20.6484 18.5062C20.8594 18.4266 21 18.225 21 18C21 17.775 20.8594 17.5734 20.6484 17.4937L18 16.5L17.0063 13.8516C16.9266 13.6406 16.725 13.5 16.5 13.5C16.275 13.5 16.0734 13.6406 15.9937 13.8516L15 16.5L12.3516 17.4937ZM28.8516 29.4937C28.6406 29.5734 28.5 29.775 28.5 30C28.5 30.225 28.6406 30.4266 28.8516 30.5062L31.5 31.5L32.4938 34.1484C32.5734 34.3594 32.775 34.5 33 34.5C33.225 34.5 33.4266 34.3594 33.5062 34.1484L34.5 31.5L37.1484 30.5062C37.3594 30.4266 37.5 30.225 37.5 30C37.5 29.775 37.3594 29.5734 37.1484 29.4937L34.5 28.5L33.5062 25.8516C33.4266 25.6406 33.225 25.5 33 25.5C32.775 25.5 32.5734 25.6406 32.4938 25.8516L31.5 28.5L28.8516 29.4937Z" fill="#0059FF"/>
</svg>
