<svg width="48" height="48" viewBox="0 0 48 48" fill="none" xmlns="http://www.w3.org/2000/svg">
<path d="M0 8C0 3.58172 3.58172 0 8 0H40C44.4183 0 48 3.58172 48 8V40C48 44.4183 44.4183 48 40 48H8C3.58172 48 0 44.4183 0 40V8Z" fill="#E0E7FF"/>
<path d="M0 8C0 3.58172 3.58172 0 8 0H40C44.4183 0 48 3.58172 48 8V40C48 44.4183 44.4183 48 40 48H8C3.58172 48 0 44.4183 0 40V8Z" stroke="#E5E7EB"/>
<path d="M12 8H36V41H12V8Z" stroke="#E5E7EB"/>
<g clip-path="url(#clip0_227_1403)">
<path d="M33 24C33 22.8181 32.7672 21.6478 32.3149 20.5558C31.8626 19.4639 31.1997 18.4718 30.364 17.636C29.5282 16.8003 28.5361 16.1374 27.4442 15.6851C26.3522 15.2328 25.1819 15 24 15C22.8181 15 21.6478 15.2328 20.5558 15.6851C19.4639 16.1374 18.4718 16.8003 17.636 17.636C16.8003 18.4718 16.1374 19.4639 15.6851 20.5558C15.2328 21.6478 15 22.8181 15 24C15 25.1819 15.2328 26.3522 15.6851 27.4442C16.1374 28.5361 16.8003 29.5282 17.636 30.364C18.4718 31.1997 19.4639 31.8626 20.5558 32.3149C21.6478 32.7672 22.8181 33 24 33C25.1819 33 26.3522 32.7672 27.4442 32.3149C28.5361 31.8626 29.5282 31.1997 30.364 30.364C31.1997 29.5282 31.8626 28.5361 32.3149 27.4442C32.7672 26.3522 33 25.1819 33 24ZM12 24C12 20.8174 13.2643 17.7652 15.5147 15.5147C17.7652 13.2643 20.8174 12 24 12C27.1826 12 30.2348 13.2643 32.4853 15.5147C34.7357 17.7652 36 20.8174 36 24C36 27.1826 34.7357 30.2348 32.4853 32.4853C30.2348 34.7357 27.1826 36 24 36C20.8174 36 17.7652 34.7357 15.5147 32.4853C13.2643 30.2348 12 27.1826 12 24ZM24 27.75C24.9946 27.75 25.9484 27.3549 26.6517 26.6517C27.3549 25.9484 27.75 24.9946 27.75 24C27.75 23.0054 27.3549 22.0516 26.6517 21.3483C25.9484 20.6451 24.9946 20.25 24 20.25C23.0054 20.25 22.0516 20.6451 21.3483 21.3483C20.6451 22.0516 20.25 23.0054 20.25 24C20.25 24.9946 20.6451 25.9484 21.3483 26.6517C22.0516 27.3549 23.0054 27.75 24 27.75ZM24 17.25C25.7902 17.25 27.5071 17.9612 28.773 19.227C30.0388 20.4929 30.75 22.2098 30.75 24C30.75 25.7902 30.0388 27.5071 28.773 28.773C27.5071 30.0388 25.7902 30.75 24 30.75C22.2098 30.75 20.4929 30.0388 19.227 28.773C17.9612 27.5071 17.25 25.7902 17.25 24C17.25 22.2098 17.9612 20.4929 19.227 19.227C20.4929 17.9612 22.2098 17.25 24 17.25ZM22.5 24C22.5 23.6022 22.658 23.2206 22.9393 22.9393C23.2206 22.658 23.6022 22.5 24 22.5C24.3978 22.5 24.7794 22.658 25.0607 22.9393C25.342 23.2206 25.5 23.6022 25.5 24C25.5 24.3978 25.342 24.7794 25.0607 25.0607C24.7794 25.342 24.3978 25.5 24 25.5C23.6022 25.5 23.2206 25.342 22.9393 25.0607C22.658 24.7794 22.5 24.3978 22.5 24Z" fill="#0059FF"/>
</g>
<defs>
<clipPath id="clip0_227_1403">
<path d="M12 12H36V36H12V12Z" fill="white"/>
</clipPath>
</defs>
</svg>
