<svg width="183" height="28" viewBox="0 0 183 28" fill="none" xmlns="http://www.w3.org/2000/svg">
<path d="M4.62358 22H0.68608L7.85511 1.63636H12.4091L19.5881 22H15.6506L10.2116 5.8125H10.0526L4.62358 22ZM4.75284 14.0156H15.4915V16.9787H4.75284V14.0156ZM27.3139 22.2685C26.1141 22.2685 25.0402 21.9602 24.0923 21.3438C23.1444 20.7273 22.3954 19.8324 21.8452 18.6591C21.295 17.4858 21.0199 16.0606 21.0199 14.3835C21.0199 12.6866 21.2983 11.2547 21.8551 10.0881C22.4186 8.91477 23.1776 8.02983 24.1321 7.43324C25.0866 6.83002 26.1506 6.52841 27.3239 6.52841C28.2188 6.52841 28.9545 6.68087 29.5312 6.98579C30.108 7.28409 30.5653 7.64536 30.9034 8.0696C31.2415 8.48722 31.5033 8.88163 31.6889 9.25284H31.8381V1.63636H35.4474V22H31.9077V19.5938H31.6889C31.5033 19.965 31.2348 20.3594 30.8835 20.777C30.5322 21.188 30.0682 21.5393 29.4915 21.831C28.9148 22.1226 28.1889 22.2685 27.3139 22.2685ZM28.3182 19.3153C29.0805 19.3153 29.7301 19.1098 30.267 18.6989C30.804 18.2812 31.2116 17.7012 31.4901 16.9588C31.7685 16.2164 31.9077 15.3513 31.9077 14.3636C31.9077 13.3759 31.7685 12.5175 31.4901 11.7884C31.2183 11.0592 30.8139 10.4924 30.277 10.0881C29.7467 9.68371 29.0938 9.48153 28.3182 9.48153C27.5161 9.48153 26.8466 9.69034 26.3097 10.108C25.7727 10.5256 25.3684 11.1023 25.0966 11.8381C24.8248 12.5739 24.6889 13.4157 24.6889 14.3636C24.6889 15.3182 24.8248 16.17 25.0966 16.919C25.375 17.6615 25.7827 18.2481 26.3196 18.679C26.8632 19.1032 27.5294 19.3153 28.3182 19.3153ZM167.207 22.125C166.862 22.125 166.567 22.0038 166.32 21.7614C166.074 21.5189 165.953 21.2235 165.957 20.875C165.953 20.5341 166.074 20.2424 166.32 20C166.567 19.7576 166.862 19.6364 167.207 19.6364C167.54 19.6364 167.83 19.7576 168.076 20C168.326 20.2424 168.453 20.5341 168.457 20.875C168.453 21.1061 168.392 21.3163 168.275 21.5057C168.161 21.6951 168.01 21.8466 167.82 21.9602C167.635 22.0701 167.43 22.125 167.207 22.125ZM170.58 22V13.2727H172.637V22H170.58ZM171.614 12.0341C171.289 12.0341 171.008 11.9261 170.773 11.7102C170.539 11.4905 170.421 11.2273 170.421 10.9205C170.421 10.6098 170.539 10.3466 170.773 10.1307C171.008 9.91098 171.289 9.80114 171.614 9.80114C171.944 9.80114 172.224 9.91098 172.455 10.1307C172.69 10.3466 172.808 10.6098 172.808 10.9205C172.808 11.2273 172.69 11.4905 172.455 11.7102C172.224 11.9261 171.944 12.0341 171.614 12.0341ZM178.559 22.1705C177.707 22.1705 176.968 21.983 176.343 21.608C175.718 21.233 175.233 20.7083 174.888 20.0341C174.548 19.3598 174.377 18.572 174.377 17.6705C174.377 16.7689 174.548 15.9792 174.888 15.3011C175.233 14.6231 175.718 14.0966 176.343 13.7216C176.968 13.3466 177.707 13.1591 178.559 13.1591C179.411 13.1591 180.15 13.3466 180.775 13.7216C181.4 14.0966 181.883 14.6231 182.224 15.3011C182.568 15.9792 182.741 16.7689 182.741 17.6705C182.741 18.572 182.568 19.3598 182.224 20.0341C181.883 20.7083 181.4 21.233 180.775 21.608C180.15 21.983 179.411 22.1705 178.559 22.1705ZM178.57 20.5227C179.032 20.5227 179.419 20.3958 179.729 20.142C180.04 19.8845 180.271 19.5398 180.423 19.108C180.578 18.6761 180.656 18.1951 180.656 17.6648C180.656 17.1307 180.578 16.6477 180.423 16.2159C180.271 15.7803 180.04 15.4337 179.729 15.1761C179.419 14.9186 179.032 14.7898 178.57 14.7898C178.097 14.7898 177.703 14.9186 177.388 15.1761C177.078 15.4337 176.845 15.7803 176.69 16.2159C176.538 16.6477 176.462 17.1307 176.462 17.6648C176.462 18.1951 176.538 18.6761 176.69 19.108C176.845 19.5398 177.078 19.8845 177.388 20.142C177.703 20.3958 178.097 20.5227 178.57 20.5227Z" fill="white"/>
<path d="M39.4421 1.63636H43.9563L50.0018 16.392H50.2404L56.2859 1.63636H60.8001V22H57.2603V8.00994H57.0714L51.4435 21.9403H48.7987L43.1708 7.98011H42.9819V22H39.4421V1.63636ZM74.3924 15.5767V6.72727H77.9918V22H74.5018V19.2855H74.3427C73.998 20.1406 73.4312 20.84 72.6424 21.3835C71.8602 21.9271 70.8957 22.1989 69.7489 22.1989C68.748 22.1989 67.863 21.9768 67.0941 21.5327C66.3318 21.0819 65.7352 20.429 65.3043 19.5739C64.8735 18.7121 64.658 17.6714 64.658 16.4517V6.72727H68.2575V15.8949C68.2575 16.8627 68.5226 17.6316 69.0529 18.2017C69.5832 18.7718 70.2792 19.0568 71.141 19.0568C71.6713 19.0568 72.185 18.9276 72.6822 18.669C73.1793 18.4105 73.587 18.026 73.9052 17.5156C74.23 16.9986 74.3924 16.3523 74.3924 15.5767ZM85.2926 1.63636V22H81.6932V1.63636H85.2926ZM96.6204 6.72727V9.51136H87.8406V6.72727H96.6204ZM90.0082 3.06818H93.6076V17.4062C93.6076 17.8902 93.6805 18.2614 93.8263 18.5199C93.9788 18.7718 94.1777 18.9441 94.4229 19.0369C94.6682 19.1297 94.94 19.1761 95.2383 19.1761C95.4637 19.1761 95.6692 19.1596 95.8548 19.1264C96.047 19.0933 96.1928 19.0634 96.2923 19.0369L96.8988 21.8509C96.7066 21.9171 96.4315 21.9901 96.0735 22.0696C95.7222 22.1491 95.2913 22.1955 94.7809 22.2088C93.8794 22.2353 93.0674 22.0994 92.3448 21.8011C91.6223 21.4962 91.0489 21.0256 90.6246 20.3892C90.207 19.7528 90.0015 18.9574 90.0082 18.0028V3.06818ZM99.6307 22V6.72727H103.23V22H99.6307ZM101.44 4.55966C100.87 4.55966 100.38 4.37074 99.9688 3.9929C99.5578 3.60843 99.3523 3.14773 99.3523 2.61079C99.3523 2.06723 99.5578 1.60653 99.9688 1.22869C100.38 0.844223 100.87 0.651988 101.44 0.651988C102.017 0.651988 102.508 0.844223 102.912 1.22869C103.323 1.60653 103.528 2.06723 103.528 2.61079C103.528 3.14773 103.323 3.60843 102.912 3.9929C102.508 4.37074 102.017 4.55966 101.44 4.55966ZM106.931 27.7273V6.72727H110.471V9.25284H110.68C110.866 8.88163 111.127 8.48722 111.466 8.0696C111.804 7.64536 112.261 7.28409 112.838 6.98579C113.414 6.68087 114.15 6.52841 115.045 6.52841C116.225 6.52841 117.289 6.83002 118.237 7.43324C119.191 8.02983 119.947 8.91477 120.504 10.0881C121.067 11.2547 121.349 12.6866 121.349 14.3835C121.349 16.0606 121.074 17.4858 120.524 18.6591C119.974 19.8324 119.225 20.7273 118.277 21.3438C117.329 21.9602 116.255 22.2685 115.055 22.2685C114.18 22.2685 113.454 22.1226 112.877 21.831C112.301 21.5393 111.837 21.188 111.485 20.777C111.141 20.3594 110.872 19.965 110.68 19.5938H110.531V27.7273H106.931ZM110.461 14.3636C110.461 15.3513 110.6 16.2164 110.879 16.9588C111.164 17.7012 111.572 18.2812 112.102 18.6989C112.639 19.1098 113.288 19.3153 114.051 19.3153C114.846 19.3153 115.512 19.1032 116.049 18.679C116.586 18.2481 116.991 17.6615 117.262 16.919C117.541 16.17 117.68 15.3182 117.68 14.3636C117.68 13.4157 117.544 12.5739 117.272 11.8381C117.001 11.1023 116.596 10.5256 116.059 10.108C115.522 9.69034 114.853 9.48153 114.051 9.48153C113.282 9.48153 112.629 9.68371 112.092 10.0881C111.555 10.4924 111.147 11.0592 110.869 11.7884C110.597 12.5175 110.461 13.3759 110.461 14.3636ZM128.031 1.63636V22H124.431V1.63636H128.031ZM131.732 22V6.72727H135.332V22H131.732ZM133.542 4.55966C132.972 4.55966 132.481 4.37074 132.07 3.9929C131.659 3.60843 131.454 3.14773 131.454 2.61079C131.454 2.06723 131.659 1.60653 132.07 1.22869C132.481 0.844223 132.972 0.651988 133.542 0.651988C134.119 0.651988 134.609 0.844223 135.013 1.22869C135.424 1.60653 135.63 2.06723 135.63 2.61079C135.63 3.14773 135.424 3.60843 135.013 3.9929C134.609 4.37074 134.119 4.55966 133.542 4.55966ZM145.794 22.2983C144.263 22.2983 142.941 21.9801 141.827 21.3438C140.72 20.7008 139.868 19.7926 139.272 18.6193C138.675 17.4394 138.377 16.0507 138.377 14.4531C138.377 12.8821 138.675 11.5033 139.272 10.3168C139.875 9.12358 140.717 8.19555 141.797 7.53267C142.878 6.86316 144.147 6.52841 145.605 6.52841C146.547 6.52841 147.435 6.68087 148.27 6.98579C149.112 7.28409 149.855 7.74811 150.498 8.37784C151.147 9.00758 151.658 9.80966 152.029 10.7841C152.4 11.7519 152.586 12.9053 152.586 14.2443V15.348H140.067V12.9219H149.135C149.129 12.2325 148.98 11.6193 148.688 11.0824C148.396 10.5388 147.989 10.1113 147.465 9.79972C146.948 9.48816 146.345 9.33239 145.655 9.33239C144.919 9.33239 144.273 9.51136 143.716 9.86932C143.159 10.2206 142.725 10.6847 142.414 11.2614C142.109 11.8314 141.953 12.4579 141.946 13.1406V15.2585C141.946 16.1468 142.109 16.9091 142.434 17.5455C142.758 18.1752 143.212 18.6591 143.796 18.9972C144.379 19.3286 145.062 19.4943 145.844 19.4943C146.368 19.4943 146.842 19.4214 147.266 19.2756C147.69 19.1231 148.058 18.901 148.37 18.6094C148.681 18.3177 148.917 17.9564 149.076 17.5256L152.436 17.9034C152.224 18.7917 151.82 19.5672 151.223 20.2301C150.633 20.8864 149.878 21.3968 148.956 21.7614C148.035 22.1193 146.981 22.2983 145.794 22.2983ZM155.631 22V6.72727H159.121V9.27273H159.28C159.558 8.3911 160.036 7.71165 160.712 7.23438C161.394 6.75047 162.173 6.50852 163.048 6.50852C163.247 6.50852 163.469 6.51847 163.714 6.53835C163.966 6.55161 164.175 6.57481 164.341 6.60795V9.91903C164.188 9.866 163.946 9.8196 163.615 9.77983C163.29 9.73343 162.975 9.71023 162.67 9.71023C162.014 9.71023 161.424 9.85275 160.901 10.1378C160.384 10.4162 159.976 10.804 159.678 11.3011C159.379 11.7983 159.23 12.3717 159.23 13.0213V22H155.631Z" fill="#0059FF"/>
</svg>
