<svg width="184" height="34" viewBox="0 0 184 34" fill="none" xmlns="http://www.w3.org/2000/svg">
<path d="M4.62358 27H0.68608L7.85511 6.63636H12.4091L19.5881 27H15.6506L10.2116 10.8125H10.0526L4.62358 27ZM4.75284 19.0156H15.4915V21.9787H4.75284V19.0156ZM27.3139 27.2685C26.1141 27.2685 25.0402 26.9602 24.0923 26.3438C23.1444 25.7273 22.3954 24.8324 21.8452 23.6591C21.295 22.4858 21.0199 21.0606 21.0199 19.3835C21.0199 17.6866 21.2983 16.2547 21.8551 15.0881C22.4186 13.9148 23.1776 13.0298 24.1321 12.4332C25.0866 11.83 26.1506 11.5284 27.3239 11.5284C28.2188 11.5284 28.9545 11.6809 29.5312 11.9858C30.108 12.2841 30.5653 12.6454 30.9034 13.0696C31.2415 13.4872 31.5033 13.8816 31.6889 14.2528H31.8381V6.63636H35.4474V27H31.9077V24.5938H31.6889C31.5033 24.965 31.2348 25.3594 30.8835 25.777C30.5322 26.188 30.0682 26.5393 29.4915 26.831C28.9148 27.1226 28.1889 27.2685 27.3139 27.2685ZM28.3182 24.3153C29.0805 24.3153 29.7301 24.1098 30.267 23.6989C30.804 23.2812 31.2116 22.7012 31.4901 21.9588C31.7685 21.2164 31.9077 20.3513 31.9077 19.3636C31.9077 18.3759 31.7685 17.5175 31.4901 16.7884C31.2183 16.0592 30.8139 15.4924 30.277 15.0881C29.7467 14.6837 29.0938 14.4815 28.3182 14.4815C27.5161 14.4815 26.8466 14.6903 26.3097 15.108C25.7727 15.5256 25.3684 16.1023 25.0966 16.8381C24.8248 17.5739 24.6889 18.4157 24.6889 19.3636C24.6889 20.3182 24.8248 21.17 25.0966 21.919C25.375 22.6615 25.7827 23.2481 26.3196 23.679C26.8632 24.1032 27.5294 24.3153 28.3182 24.3153ZM167.207 27.125C166.862 27.125 166.567 27.0038 166.32 26.7614C166.074 26.5189 165.953 26.2235 165.957 25.875C165.953 25.5341 166.074 25.2424 166.32 25C166.567 24.7576 166.862 24.6364 167.207 24.6364C167.54 24.6364 167.83 24.7576 168.076 25C168.326 25.2424 168.453 25.5341 168.457 25.875C168.453 26.1061 168.392 26.3163 168.275 26.5057C168.161 26.6951 168.01 26.8466 167.82 26.9602C167.635 27.0701 167.43 27.125 167.207 27.125ZM170.58 27V18.2727H172.637V27H170.58ZM171.614 17.0341C171.289 17.0341 171.008 16.9261 170.773 16.7102C170.539 16.4905 170.421 16.2273 170.421 15.9205C170.421 15.6098 170.539 15.3466 170.773 15.1307C171.008 14.911 171.289 14.8011 171.614 14.8011C171.944 14.8011 172.224 14.911 172.455 15.1307C172.69 15.3466 172.808 15.6098 172.808 15.9205C172.808 16.2273 172.69 16.4905 172.455 16.7102C172.224 16.9261 171.944 17.0341 171.614 17.0341ZM178.559 27.1705C177.707 27.1705 176.968 26.983 176.343 26.608C175.718 26.233 175.233 25.7083 174.888 25.0341C174.548 24.3598 174.377 23.572 174.377 22.6705C174.377 21.7689 174.548 20.9792 174.888 20.3011C175.233 19.6231 175.718 19.0966 176.343 18.7216C176.968 18.3466 177.707 18.1591 178.559 18.1591C179.411 18.1591 180.15 18.3466 180.775 18.7216C181.4 19.0966 181.883 19.6231 182.224 20.3011C182.568 20.9792 182.741 21.7689 182.741 22.6705C182.741 23.572 182.568 24.3598 182.224 25.0341C181.883 25.7083 181.4 26.233 180.775 26.608C180.15 26.983 179.411 27.1705 178.559 27.1705ZM178.57 25.5227C179.032 25.5227 179.419 25.3958 179.729 25.142C180.04 24.8845 180.271 24.5398 180.423 24.108C180.578 23.6761 180.656 23.1951 180.656 22.6648C180.656 22.1307 180.578 21.6477 180.423 21.2159C180.271 20.7803 180.04 20.4337 179.729 20.1761C179.419 19.9186 179.032 19.7898 178.57 19.7898C178.097 19.7898 177.703 19.9186 177.388 20.1761C177.078 20.4337 176.845 20.7803 176.69 21.2159C176.538 21.6477 176.462 22.1307 176.462 22.6648C176.462 23.1951 176.538 23.6761 176.69 24.108C176.845 24.5398 177.078 24.8845 177.388 25.142C177.703 25.3958 178.097 25.5227 178.57 25.5227Z" fill="black"/>
<path d="M39.4421 6.63636H43.9563L50.0018 21.392H50.2404L56.2859 6.63636H60.8001V27H57.2603V13.0099H57.0714L51.4435 26.9403H48.7987L43.1708 12.9801H42.9819V27H39.4421V6.63636ZM74.3924 20.5767V11.7273H77.9918V27H74.5018V24.2855H74.3427C73.998 25.1406 73.4312 25.84 72.6424 26.3835C71.8602 26.9271 70.8957 27.1989 69.7489 27.1989C68.748 27.1989 67.863 26.9768 67.0941 26.5327C66.3318 26.0819 65.7352 25.429 65.3043 24.5739C64.8735 23.7121 64.658 22.6714 64.658 21.4517V11.7273H68.2575V20.8949C68.2575 21.8627 68.5226 22.6316 69.0529 23.2017C69.5832 23.7718 70.2792 24.0568 71.141 24.0568C71.6713 24.0568 72.185 23.9276 72.6822 23.669C73.1793 23.4105 73.587 23.026 73.9052 22.5156C74.23 21.9986 74.3924 21.3523 74.3924 20.5767ZM85.2926 6.63636V27H81.6932V6.63636H85.2926ZM96.6204 11.7273V14.5114H87.8406V11.7273H96.6204ZM90.0082 8.06818H93.6076V22.4062C93.6076 22.8902 93.6805 23.2614 93.8263 23.5199C93.9788 23.7718 94.1777 23.9441 94.4229 24.0369C94.6682 24.1297 94.94 24.1761 95.2383 24.1761C95.4637 24.1761 95.6692 24.1596 95.8548 24.1264C96.047 24.0933 96.1928 24.0634 96.2923 24.0369L96.8988 26.8509C96.7066 26.9171 96.4315 26.9901 96.0735 27.0696C95.7222 27.1491 95.2913 27.1955 94.7809 27.2088C93.8794 27.2353 93.0674 27.0994 92.3448 26.8011C91.6223 26.4962 91.0489 26.0256 90.6246 25.3892C90.207 24.7528 90.0015 23.9574 90.0082 23.0028V8.06818ZM99.6307 27V11.7273H103.23V27H99.6307ZM101.44 9.55966C100.87 9.55966 100.38 9.37074 99.9688 8.9929C99.5578 8.60843 99.3523 8.14773 99.3523 7.61079C99.3523 7.06723 99.5578 6.60653 99.9688 6.22869C100.38 5.84422 100.87 5.65199 101.44 5.65199C102.017 5.65199 102.508 5.84422 102.912 6.22869C103.323 6.60653 103.528 7.06723 103.528 7.61079C103.528 8.14773 103.323 8.60843 102.912 8.9929C102.508 9.37074 102.017 9.55966 101.44 9.55966ZM106.931 32.7273V11.7273H110.471V14.2528H110.68C110.866 13.8816 111.127 13.4872 111.466 13.0696C111.804 12.6454 112.261 12.2841 112.838 11.9858C113.414 11.6809 114.15 11.5284 115.045 11.5284C116.225 11.5284 117.289 11.83 118.237 12.4332C119.191 13.0298 119.947 13.9148 120.504 15.0881C121.067 16.2547 121.349 17.6866 121.349 19.3835C121.349 21.0606 121.074 22.4858 120.524 23.6591C119.974 24.8324 119.225 25.7273 118.277 26.3438C117.329 26.9602 116.255 27.2685 115.055 27.2685C114.18 27.2685 113.454 27.1226 112.877 26.831C112.301 26.5393 111.837 26.188 111.485 25.777C111.141 25.3594 110.872 24.965 110.68 24.5938H110.531V32.7273H106.931ZM110.461 19.3636C110.461 20.3513 110.6 21.2164 110.879 21.9588C111.164 22.7012 111.572 23.2812 112.102 23.6989C112.639 24.1098 113.288 24.3153 114.051 24.3153C114.846 24.3153 115.512 24.1032 116.049 23.679C116.586 23.2481 116.991 22.6615 117.262 21.919C117.541 21.17 117.68 20.3182 117.68 19.3636C117.68 18.4157 117.544 17.5739 117.272 16.8381C117.001 16.1023 116.596 15.5256 116.059 15.108C115.522 14.6903 114.853 14.4815 114.051 14.4815C113.282 14.4815 112.629 14.6837 112.092 15.0881C111.555 15.4924 111.147 16.0592 110.869 16.7884C110.597 17.5175 110.461 18.3759 110.461 19.3636ZM128.031 6.63636V27H124.431V6.63636H128.031ZM131.732 27V11.7273H135.332V27H131.732ZM133.542 9.55966C132.972 9.55966 132.481 9.37074 132.07 8.9929C131.659 8.60843 131.454 8.14773 131.454 7.61079C131.454 7.06723 131.659 6.60653 132.07 6.22869C132.481 5.84422 132.972 5.65199 133.542 5.65199C134.119 5.65199 134.609 5.84422 135.013 6.22869C135.424 6.60653 135.63 7.06723 135.63 7.61079C135.63 8.14773 135.424 8.60843 135.013 8.9929C134.609 9.37074 134.119 9.55966 133.542 9.55966ZM145.794 27.2983C144.263 27.2983 142.941 26.9801 141.827 26.3438C140.72 25.7008 139.868 24.7926 139.272 23.6193C138.675 22.4394 138.377 21.0507 138.377 19.4531C138.377 17.8821 138.675 16.5033 139.272 15.3168C139.875 14.1236 140.717 13.1955 141.797 12.5327C142.878 11.8632 144.147 11.5284 145.605 11.5284C146.547 11.5284 147.435 11.6809 148.27 11.9858C149.112 12.2841 149.855 12.7481 150.498 13.3778C151.147 14.0076 151.658 14.8097 152.029 15.7841C152.4 16.7519 152.586 17.9053 152.586 19.2443V20.348H140.067V17.9219H149.135C149.129 17.2325 148.98 16.6193 148.688 16.0824C148.396 15.5388 147.989 15.1113 147.465 14.7997C146.948 14.4882 146.345 14.3324 145.655 14.3324C144.919 14.3324 144.273 14.5114 143.716 14.8693C143.159 15.2206 142.725 15.6847 142.414 16.2614C142.109 16.8314 141.953 17.4579 141.946 18.1406V20.2585C141.946 21.1468 142.109 21.9091 142.434 22.5455C142.758 23.1752 143.212 23.6591 143.796 23.9972C144.379 24.3286 145.062 24.4943 145.844 24.4943C146.368 24.4943 146.842 24.4214 147.266 24.2756C147.69 24.1231 148.058 23.901 148.37 23.6094C148.681 23.3177 148.917 22.9564 149.076 22.5256L152.436 22.9034C152.224 23.7917 151.82 24.5672 151.223 25.2301C150.633 25.8864 149.878 26.3968 148.956 26.7614C148.035 27.1193 146.981 27.2983 145.794 27.2983ZM155.631 27V11.7273H159.121V14.2727H159.28C159.558 13.3911 160.036 12.7116 160.712 12.2344C161.394 11.7505 162.173 11.5085 163.048 11.5085C163.247 11.5085 163.469 11.5185 163.714 11.5384C163.966 11.5516 164.175 11.5748 164.341 11.608V14.919C164.188 14.866 163.946 14.8196 163.615 14.7798C163.29 14.7334 162.975 14.7102 162.67 14.7102C162.014 14.7102 161.424 14.8527 160.901 15.1378C160.384 15.4162 159.976 15.804 159.678 16.3011C159.379 16.7983 159.23 17.3717 159.23 18.0213V27H155.631Z" fill="#0059FF"/>
</svg>
