<svg width="32" height="32" viewBox="0 0 32 32" fill="none" xmlns="http://www.w3.org/2000/svg">
<path d="M16 26.6668H28M21.8347 4.82947C22.3655 4.29868 23.0854 4.00049 23.836 4.00049C24.5867 4.00049 25.3066 4.29868 25.8373 4.82947C26.3681 5.36025 26.6663 6.08016 26.6663 6.8308C26.6663 7.58145 26.3681 8.30135 25.8373 8.83213L9.82401 24.8468C9.5068 25.164 9.11471 25.396 8.68401 25.5215L4.85468 26.6388C4.73995 26.6723 4.61833 26.6743 4.50256 26.6446C4.38678 26.615 4.28111 26.5547 4.19661 26.4702C4.1121 26.3857 4.05186 26.28 4.0222 26.1643C3.99254 26.0485 3.99455 25.9269 4.02801 25.8121L5.14534 21.9828C5.27097 21.5526 5.50301 21.161 5.82001 20.8441L21.8347 4.82947Z" stroke="#0059FF" stroke-width="2" stroke-linecap="round" stroke-linejoin="round"/>
</svg>
