<svg width="370" height="34" viewBox="0 0 370 34" fill="none" xmlns="http://www.w3.org/2000/svg">
<path d="M2.61697 27V7.4H11.101C12.8556 7.4 14.3676 7.68933 15.637 8.268C16.9063 8.828 17.8863 9.64 18.577 10.704C19.2676 11.768 19.613 13.0373 19.613 14.512C19.613 15.968 19.2676 17.228 18.577 18.292C17.8863 19.356 16.9063 20.1773 15.637 20.756C14.3676 21.316 12.8556 21.596 11.101 21.596H5.13697L7.15297 19.552V27H2.61697ZM7.15297 20.056L5.13697 17.9H10.849C12.249 17.9 13.2943 17.6013 13.985 17.004C14.6756 16.4067 15.021 15.576 15.021 14.512C15.021 13.4293 14.6756 12.5893 13.985 11.992C13.2943 11.3947 12.249 11.096 10.849 11.096H5.13697L7.15297 8.94V20.056ZM22.516 27V11.936H26.688V16.192L26.1 14.96C26.548 13.896 27.2667 13.0933 28.256 12.552C29.2453 11.992 30.4493 11.712 31.868 11.712V15.744C31.6813 15.7253 31.5133 15.716 31.364 15.716C31.2147 15.6973 31.056 15.688 30.888 15.688C29.6933 15.688 28.7227 16.0333 27.976 16.724C27.248 17.396 26.884 18.4507 26.884 19.888V27H22.516ZM41.8318 27.224C40.1145 27.224 38.6025 26.888 37.2958 26.216C36.0078 25.544 35.0092 24.6293 34.2998 23.472C33.5905 22.296 33.2358 20.9613 33.2358 19.468C33.2358 17.956 33.5812 16.6213 34.2718 15.464C34.9812 14.288 35.9425 13.3733 37.1558 12.72C38.3692 12.048 39.7412 11.712 41.2718 11.712C42.7465 11.712 44.0718 12.0293 45.2478 12.664C46.4425 13.28 47.3852 14.176 48.0758 15.352C48.7665 16.5093 49.1118 17.9 49.1118 19.524C49.1118 19.692 49.1025 19.888 49.0838 20.112C49.0652 20.3173 49.0465 20.5133 49.0278 20.7H36.7918V18.152H46.7318L45.0518 18.908C45.0518 18.124 44.8932 17.4427 44.5758 16.864C44.2585 16.2853 43.8198 15.8373 43.2598 15.52C42.6998 15.184 42.0465 15.016 41.2998 15.016C40.5532 15.016 39.8905 15.184 39.3118 15.52C38.7518 15.8373 38.3132 16.2947 37.9958 16.892C37.6785 17.4707 37.5198 18.1613 37.5198 18.964V19.636C37.5198 20.4573 37.6972 21.1853 38.0518 21.82C38.4252 22.436 38.9385 22.912 39.5918 23.248C40.2638 23.5653 41.0478 23.724 41.9438 23.724C42.7465 23.724 43.4465 23.6027 44.0438 23.36C44.6598 23.1173 45.2198 22.7533 45.7238 22.268L48.0478 24.788C47.3572 25.572 46.4892 26.1787 45.4438 26.608C44.3985 27.0187 43.1945 27.224 41.8318 27.224ZM71.3119 11.712C72.5066 11.712 73.5612 11.9547 74.4759 12.44C75.4092 12.9067 76.1372 13.6347 76.6599 14.624C77.2012 15.5947 77.4719 16.8453 77.4719 18.376V27H73.1039V19.048C73.1039 17.8347 72.8519 16.9387 72.3479 16.36C71.8439 15.7813 71.1346 15.492 70.2199 15.492C69.5852 15.492 69.0159 15.6413 68.5119 15.94C68.0079 16.22 67.6159 16.6493 67.3359 17.228C67.0559 17.8067 66.9159 18.544 66.9159 19.44V27H62.5479V19.048C62.5479 17.8347 62.2959 16.9387 61.7919 16.36C61.3066 15.7813 60.6066 15.492 59.6919 15.492C59.0572 15.492 58.4879 15.6413 57.9839 15.94C57.4799 16.22 57.0879 16.6493 56.8079 17.228C56.5279 17.8067 56.3879 18.544 56.3879 19.44V27H52.0199V11.936H56.1919V16.052L55.4079 14.848C55.9306 13.8213 56.6679 13.0467 57.6199 12.524C58.5906 11.9827 59.6919 11.712 60.9239 11.712C62.3052 11.712 63.5092 12.0667 64.5359 12.776C65.5812 13.4667 66.2719 14.5307 66.6079 15.968L65.0679 15.548C65.5719 14.372 66.3746 13.4387 67.4759 12.748C68.5959 12.0573 69.8746 11.712 71.3119 11.712ZM81.3871 27V11.936H85.7551V27H81.3871ZM83.5711 9.836C82.7684 9.836 82.1151 9.60267 81.6111 9.136C81.1071 8.66933 80.8551 8.09067 80.8551 7.4C80.8551 6.70933 81.1071 6.13067 81.6111 5.664C82.1151 5.19733 82.7684 4.964 83.5711 4.964C84.3738 4.964 85.0271 5.188 85.5311 5.636C86.0351 6.06533 86.2871 6.62533 86.2871 7.316C86.2871 8.044 86.0351 8.65067 85.5311 9.136C85.0458 9.60267 84.3924 9.836 83.5711 9.836ZM96.165 27.224C94.9143 27.224 93.7943 26.9813 92.805 26.496C91.8343 26.0107 91.0783 25.2733 90.537 24.284C89.9956 23.276 89.725 21.9973 89.725 20.448V11.936H94.093V19.804C94.093 21.0547 94.3543 21.9787 94.877 22.576C95.4183 23.1547 96.1743 23.444 97.145 23.444C97.817 23.444 98.4143 23.304 98.937 23.024C99.4596 22.7253 99.8703 22.2773 100.169 21.68C100.468 21.064 100.617 20.2987 100.617 19.384V11.936H104.985V27H100.841V22.856L101.597 24.06C101.093 25.1053 100.346 25.8987 99.357 26.44C98.3863 26.9627 97.3223 27.224 96.165 27.224ZM128.324 11.712C129.518 11.712 130.573 11.9547 131.488 12.44C132.421 12.9067 133.149 13.6347 133.672 14.624C134.213 15.5947 134.484 16.8453 134.484 18.376V27H130.116V19.048C130.116 17.8347 129.864 16.9387 129.36 16.36C128.856 15.7813 128.146 15.492 127.232 15.492C126.597 15.492 126.028 15.6413 125.524 15.94C125.02 16.22 124.628 16.6493 124.348 17.228C124.068 17.8067 123.928 18.544 123.928 19.44V27H119.56V19.048C119.56 17.8347 119.308 16.9387 118.804 16.36C118.318 15.7813 117.618 15.492 116.704 15.492C116.069 15.492 115.5 15.6413 114.996 15.94C114.492 16.22 114.1 16.6493 113.82 17.228C113.54 17.8067 113.4 18.544 113.4 19.44V27H109.032V11.936H113.204V16.052L112.42 14.848C112.942 13.8213 113.68 13.0467 114.632 12.524C115.602 11.9827 116.704 11.712 117.936 11.712C119.317 11.712 120.521 12.0667 121.548 12.776C122.593 13.4667 123.284 14.5307 123.62 15.968L122.08 15.548C122.584 14.372 123.386 13.4387 124.488 12.748C125.608 12.0573 126.886 11.712 128.324 11.712ZM155.233 27.224C153.963 27.224 152.853 26.944 151.901 26.384C150.949 25.824 150.202 24.9747 149.661 23.836C149.138 22.6787 148.877 21.2227 148.877 19.468C148.877 17.6947 149.129 16.2387 149.633 15.1C150.137 13.9613 150.865 13.112 151.817 12.552C152.769 11.992 153.907 11.712 155.233 11.712C156.651 11.712 157.921 12.0387 159.041 12.692C160.179 13.3267 161.075 14.2227 161.729 15.38C162.401 16.5373 162.737 17.9 162.737 19.468C162.737 21.0547 162.401 22.4267 161.729 23.584C161.075 24.7413 160.179 25.6373 159.041 26.272C157.921 26.9067 156.651 27.224 155.233 27.224ZM146.329 32.432V11.936H150.501V15.016L150.417 19.496L150.697 23.948V32.432H146.329ZM154.477 23.64C155.205 23.64 155.849 23.472 156.409 23.136C156.987 22.8 157.445 22.324 157.781 21.708C158.135 21.0733 158.312 20.3267 158.312 19.468C158.312 18.5907 158.135 17.844 157.781 17.228C157.445 16.612 156.987 16.136 156.409 15.8C155.849 15.464 155.205 15.296 154.477 15.296C153.749 15.296 153.095 15.464 152.517 15.8C151.938 16.136 151.481 16.612 151.145 17.228C150.809 17.844 150.641 18.5907 150.641 19.468C150.641 20.3267 150.809 21.0733 151.145 21.708C151.481 22.324 151.938 22.8 152.517 23.136C153.095 23.472 153.749 23.64 154.477 23.64ZM165.661 27V6.224H170.029V27H165.661ZM183.322 27V24.06L183.042 23.416V18.152C183.042 17.2187 182.753 16.4907 182.174 15.968C181.614 15.4453 180.746 15.184 179.57 15.184C178.768 15.184 177.974 15.3147 177.19 15.576C176.425 15.8187 175.772 16.1547 175.23 16.584L173.662 13.532C174.484 12.9533 175.473 12.5053 176.63 12.188C177.788 11.8707 178.964 11.712 180.158 11.712C182.454 11.712 184.237 12.2533 185.506 13.336C186.776 14.4187 187.41 16.108 187.41 18.404V27H183.322ZM178.73 27.224C177.554 27.224 176.546 27.028 175.706 26.636C174.866 26.2253 174.222 25.6747 173.774 24.984C173.326 24.2933 173.102 23.5187 173.102 22.66C173.102 21.764 173.317 20.98 173.746 20.308C174.194 19.636 174.894 19.1133 175.846 18.74C176.798 18.348 178.04 18.152 179.57 18.152H183.574V20.7H180.046C179.02 20.7 178.31 20.868 177.918 21.204C177.545 21.54 177.358 21.96 177.358 22.464C177.358 23.024 177.573 23.472 178.002 23.808C178.45 24.1253 179.057 24.284 179.822 24.284C180.55 24.284 181.204 24.116 181.782 23.78C182.361 23.4253 182.781 22.912 183.042 22.24L183.714 24.256C183.397 25.2267 182.818 25.964 181.978 26.468C181.138 26.972 180.056 27.224 178.73 27.224ZM200.52 11.712C201.714 11.712 202.778 11.9547 203.712 12.44C204.664 12.9067 205.41 13.6347 205.952 14.624C206.493 15.5947 206.764 16.8453 206.764 18.376V27H202.396V19.048C202.396 17.8347 202.125 16.9387 201.584 16.36C201.061 15.7813 200.314 15.492 199.344 15.492C198.653 15.492 198.028 15.6413 197.468 15.94C196.926 16.22 196.497 16.6587 196.18 17.256C195.881 17.8533 195.732 18.6187 195.732 19.552V27H191.364V11.936H195.536V16.108L194.752 14.848C195.293 13.84 196.068 13.0653 197.076 12.524C198.084 11.9827 199.232 11.712 200.52 11.712Z" fill="url(#paint0_linear_263_375)"/>
<defs>
<linearGradient id="paint0_linear_263_375" x1="195.151" y1="17.5862" x2="-91.1339" y2="-17.1675" gradientUnits="userSpaceOnUse">
<stop stop-color="#8E8E8E"/>
<stop offset="1" stop-color="#111111"/>
</linearGradient>
</defs>
</svg>
