<svg width="30" height="30" viewBox="0 0 30 30" fill="none" xmlns="http://www.w3.org/2000/svg">
<g clip-path="url(#clip0_62_2429)">
<g clip-path="url(#clip1_62_2429)">
<path d="M9.17578 22.5528L7.36523 20.7422C6.86718 20.2442 6.6914 19.5235 6.91406 18.8555C7.08984 18.334 7.32421 17.6543 7.60546 16.875H1.40625C0.90234 16.875 0.43359 16.6055 0.181636 16.166C-0.0703167 15.7266 -0.0644573 15.1875 0.193355 14.7539L3.26953 9.56839C4.03125 8.28519 5.4082 7.50003 6.89648 7.50003H11.7187C11.8594 7.26566 12 7.04886 12.1406 6.83792C16.9394 -0.240201 24.0879 -0.474576 28.3535 0.31058C29.0332 0.433627 29.5605 0.966831 29.6894 1.64652C30.4746 5.918 30.2344 13.0606 23.1621 17.8594C22.957 18 22.7344 18.1407 22.5 18.2813V23.1035C22.5 24.5918 21.7148 25.9746 20.4316 26.7305L15.2461 29.8067C14.8125 30.0645 14.2734 30.0703 13.834 29.8184C13.3945 29.5664 13.125 29.1035 13.125 28.5938V22.3125C12.2988 22.5996 11.5781 22.834 11.0332 23.0098C10.3769 23.2207 9.66211 23.0391 9.16992 22.5528H9.17578ZM22.5 9.84378C23.1216 9.84378 23.7177 9.59685 24.1573 9.15732C24.5968 8.71778 24.8437 8.12163 24.8437 7.50003C24.8437 6.87843 24.5968 6.28229 24.1573 5.84275C23.7177 5.40321 23.1216 5.15628 22.5 5.15628C21.8784 5.15628 21.2823 5.40321 20.8427 5.84275C20.4032 6.28229 20.1562 6.87843 20.1562 7.50003C20.1562 8.12163 20.4032 8.71778 20.8427 9.15732C21.2823 9.59685 21.8784 9.84378 22.5 9.84378Z" fill="#3B82F6"/>
</g>
</g>
<defs>
<clipPath id="clip0_62_2429">
<rect width="30" height="30" fill="white"/>
</clipPath>
<clipPath id="clip1_62_2429">
<path d="M0 0H30V30H0V0Z" fill="white"/>
</clipPath>
</defs>
</svg>
